<?xml version="1.0" standalone="no"?>
<!DOCTYPE svg PUBLIC "-//W3C//DTD SVG 20010904//EN"
 "http://www.w3.org/TR/2001/REC-SVG-20010904/DTD/svg10.dtd">
<svg version="1.0" xmlns="http://www.w3.org/2000/svg"
 width="1872.000000pt" height="1404.000000pt" viewBox="0 0 1872.000000 1404.000000"
 preserveAspectRatio="xMidYMid meet">

<g transform="translate(0.000000,1404.000000) scale(0.100000,-0.100000)"
fill="#000000" stroke="none">
<path d="M15295 13489 c-66 -134 -73 -141 -148 -143 -68 -2 -117 -24 -117 -52
0 -9 -11 -25 -24 -35 -58 -46 -73 -138 -30 -188 l26 -31 -52 -104 c-46 -92
-56 -134 -30 -124 5 2 33 50 62 108 l53 105 54 2 c112 6 213 82 227 171 7 44
-8 79 -50 114 -19 15 -20 19 -7 40 8 13 21 37 29 53 9 17 19 37 23 45 5 8 16
29 24 47 9 17 26 33 37 36 27 7 18 31 -13 35 -22 3 -29 -7 -64 -79z m-27 -228
c6 -8 12 -32 12 -53 0 -68 -103 -148 -189 -148 -11 0 -21 2 -21 5 0 7 120 196
138 217 16 19 31 13 60 -21z m-153 -57 c-30 -47 -63 -97 -72 -111 l-17 -25
-24 27 c-29 34 -25 71 13 120 26 35 97 75 133 75 20 0 18 -6 -33 -86z"/>
<path d="M3814 13529 c-4 -7 -6 -36 -5 -65 2 -55 -23 -189 -43 -235 -4 -8 -15
-42 -25 -75 -11 -32 -25 -73 -32 -90 -15 -38 -6 -72 15 -54 8 6 18 26 22 43 8
39 67 130 101 157 31 24 61 26 70 4 3 -9 -6 -52 -20 -97 -18 -58 -22 -86 -15
-95 15 -17 18 -12 45 71 26 83 29 139 9 156 -24 20 -75 16 -108 -9 -28 -21
-31 -21 -24 -4 15 37 44 190 48 244 2 45 0 55 -14 58 -9 2 -19 -2 -24 -9z"/>
<path d="M4866 13519 c-2 -8 -7 -54 -10 -104 -9 -160 -61 -301 -135 -368 -46
-41 -50 -43 -76 -24 -27 20 -13 76 36 137 28 35 47 50 64 50 29 0 39 14 21 29
-25 21 -66 1 -110 -56 -51 -65 -68 -111 -55 -155 11 -38 24 -48 68 -48 29 0
43 9 82 49 61 63 85 111 114 225 33 129 42 248 21 265 -13 11 -16 11 -20 0z"/>
<path d="M17396 13458 c-48 -74 -103 -130 -110 -112 -17 44 -135 -22 -174 -98
l-24 -47 21 -43 20 -42 -38 -50 c-66 -87 -87 -146 -51 -146 6 0 8 5 5 10 -3 6
-2 10 3 10 4 0 16 16 26 36 9 21 33 56 52 80 l35 42 36 -14 c47 -20 99 -11
156 27 25 16 50 43 57 59 19 45 8 135 -19 164 l-23 24 46 63 c25 35 46 69 46
76 0 29 -32 10 -64 -39z m-11 -198 c10 -58 -14 -103 -67 -129 -24 -11 -58 -21
-74 -21 -61 0 -59 11 21 119 73 97 78 102 95 86 10 -9 21 -34 25 -55z m-126
46 c8 -10 -1 -29 -41 -85 -28 -39 -55 -71 -60 -71 -5 0 -13 11 -20 25 -16 35
6 80 55 116 46 33 50 34 66 15z"/>
<path d="M2277 13483 c-4 -6 -14 -107 -19 -178 -1 -2 -11 -46 -23 -97 -25
-104 -28 -203 -7 -203 10 0 15 17 17 55 2 30 10 84 19 120 19 79 47 290 40
301 -6 11 -21 12 -27 2z"/>
<path d="M15502 13413 c-20 -43 -40 -80 -45 -81 -22 -10 -167 -254 -170 -287
-1 -14 4 -20 18 -20 11 0 19 6 17 13 -2 14 36 83 115 204 23 37 43 72 43 78 0
5 4 10 9 10 13 0 83 138 76 150 -13 21 -27 7 -63 -67z"/>
<path d="M6656 13469 c-2 -8 -6 -70 -9 -139 -3 -94 -8 -134 -22 -160 -34 -69
-85 -104 -85 -61 0 20 32 83 58 114 20 23 1 47 -22 28 -27 -22 -77 -121 -73
-145 11 -85 96 -62 150 39 18 34 22 61 25 179 3 89 0 142 -7 149 -7 7 -12 6
-15 -4z"/>
<path d="M2022 13448 c-6 -6 -9 -23 -6 -37 3 -14 -4 -77 -15 -139 -36 -197
-37 -309 -3 -288 5 3 10 28 10 54 0 27 3 76 7 109 l7 60 68 16 c38 9 83 14
104 10 29 -4 36 -2 36 10 0 27 -67 32 -162 12 l-38 -7 6 33 c3 19 10 50 15 69
13 50 11 86 -4 99 -10 8 -17 7 -25 -1z"/>
<path d="M18021 13451 c-11 -7 -10 -14 5 -36 17 -27 17 -28 -1 -42 -18 -12
-21 -11 -28 12 -8 23 -13 25 -65 24 -80 -1 -105 -10 -116 -42 -7 -20 -6 -36 6
-60 16 -34 16 -34 -14 -51 -41 -25 -90 -95 -86 -125 5 -39 45 -62 111 -62 107
-2 135 49 81 145 -15 26 -25 49 -23 51 2 2 29 14 59 28 58 26 140 82 140 95
-1 4 -13 21 -28 39 -19 21 -32 29 -41 24z m-54 -91 c11 -16 6 -21 -43 -41 -47
-18 -57 -20 -65 -8 -18 28 -6 54 29 57 17 2 32 7 32 12 0 14 35 0 47 -20z
m-80 -171 c12 -24 22 -50 22 -57 2 -31 -110 -41 -144 -12 -13 10 -13 16 0 40
17 34 73 82 89 77 6 -2 21 -23 33 -48z"/>
<path d="M2525 13358 c-3 -24 -11 -64 -17 -89 -11 -45 -13 -47 -57 -55 -30 -6
-46 -14 -46 -24 0 -11 10 -14 41 -13 l40 3 -6 -58 c-4 -33 -3 -60 3 -63 5 -4
5 -9 -2 -13 -19 -12 -13 -48 7 -44 12 2 18 14 19 43 2 22 5 63 9 91 5 51 6 52
47 62 23 5 58 8 77 5 19 -2 45 -4 58 -4 17 1 22 -4 19 -17 -15 -57 -28 -141
-25 -165 6 -49 23 -30 36 40 7 37 16 86 20 108 l7 39 74 13 c89 15 101 19 101
34 0 8 -23 9 -80 4 -44 -4 -80 -5 -80 -2 0 4 7 32 15 63 8 31 12 61 9 65 -13
21 -32 6 -38 -28 -14 -89 -24 -109 -60 -120 -22 -7 -39 -7 -51 0 -10 5 -39 7
-65 4 l-48 -6 13 52 c22 83 22 111 3 115 -12 2 -18 -7 -23 -40z"/>
<path d="M16928 13386 c-63 -12 -89 -29 -71 -47 7 -7 17 -8 29 -1 34 17 104
24 104 10 0 -43 -119 -154 -227 -213 -65 -34 -96 -71 -69 -81 9 -4 40 10 78
35 34 23 69 40 77 39 9 -2 22 -22 29 -46 16 -49 52 -66 80 -39 17 18 19 15
-33 32 -8 2 -15 13 -15 24 0 10 -8 29 -19 42 l-18 23 55 47 c57 48 102 111
102 141 0 17 -26 49 -38 47 -4 -1 -33 -6 -64 -13z"/>
<path d="M10486 13361 c-3 -4 1 -41 10 -82 19 -91 7 -184 -27 -211 -51 -42
-116 -3 -93 56 9 22 29 20 46 -6 8 -12 19 -18 26 -14 19 11 14 30 -12 55 -35
33 -72 22 -93 -26 -13 -33 -13 -40 0 -68 33 -70 129 -67 172 5 17 29 20 53 21
150 0 63 -3 123 -8 133 -9 18 -33 23 -42 8z"/>
<path d="M16376 13361 c-4 -5 -3 -16 0 -25 3 -8 -5 -39 -19 -69 -33 -73 -89
-255 -82 -267 7 -12 35 -13 36 -2 5 51 46 182 81 261 19 41 27 72 24 87 -6 24
-30 32 -40 15z"/>
<path d="M17630 13343 c-14 -40 -66 -137 -117 -216 -44 -69 -54 -107 -28 -107
8 0 15 5 15 10 0 6 22 45 48 88 65 103 111 192 114 221 4 34 -20 38 -32 4z"/>
<path d="M15893 13344 c-16 -41 46 -50 182 -28 21 3 7 -7 -45 -36 -41 -22 -80
-47 -87 -56 -19 -25 1 -50 44 -58 55 -9 103 -41 103 -69 0 -29 -42 -70 -100
-96 -76 -34 -117 -27 -189 33 -69 58 -111 34 -46 -26 67 -61 173 -75 260 -34
59 27 115 86 115 121 0 37 -39 75 -99 95 -53 18 -54 18 -30 33 13 9 60 33 103
54 76 37 108 64 93 79 -4 4 -63 2 -131 -5 -94 -10 -128 -11 -145 -2 -18 10
-22 9 -28 -5z"/>
<path d="M7152 13291 c-52 -56 -72 -89 -72 -118 0 -16 -4 -33 -9 -38 -5 -6
-13 -27 -16 -47 -6 -30 -4 -38 8 -38 13 0 54 89 60 131 4 24 48 89 67 99 19
10 31 1 43 -33 10 -26 33 -15 29 14 -7 61 -67 77 -110 30z"/>
<path d="M3058 13281 c-25 -16 -57 -44 -70 -63 -14 -19 -33 -34 -48 -36 -13
-1 -29 -7 -33 -11 -13 -13 2 -33 20 -27 12 5 13 0 8 -27 -4 -17 -12 -36 -19
-42 -6 -5 -12 -29 -13 -52 0 -23 -13 -81 -28 -128 -20 -64 -24 -90 -16 -98 7
-7 14 -7 20 -1 11 12 57 131 65 170 6 26 10 30 35 26 23 -3 35 5 75 49 52 58
113 160 122 206 5 25 1 34 -17 47 -33 22 -48 20 -101 -13z m78 -42 c-7 -35
-80 -152 -121 -192 -23 -23 -31 -25 -41 -15 -19 18 5 127 34 158 12 13 18 28
15 34 -3 6 -3 8 2 4 4 -4 21 4 37 17 16 14 41 25 55 25 23 0 25 -3 19 -31z"/>
<path d="M5321 13297 c-6 -8 -8 -17 -4 -20 3 -4 1 -7 -5 -7 -7 0 -22 -20 -34
-45 -16 -33 -27 -44 -42 -42 -18 2 -21 -5 -28 -60 -3 -34 -12 -72 -18 -83 -8
-16 -9 -25 -1 -33 15 -15 34 4 61 65 66 151 90 198 100 198 5 0 10 -7 10 -15
0 -23 22 -65 31 -59 15 9 10 68 -7 92 -17 25 -46 29 -63 9z"/>
<path d="M5645 13280 c-16 -4 -41 -12 -54 -19 -32 -18 -24 -63 23 -131 20 -29
34 -56 31 -61 -8 -12 -74 -29 -113 -29 -48 0 -71 15 -64 42 4 17 2 20 -12 15
-10 -4 -22 -7 -27 -7 -6 0 -9 -14 -7 -32 3 -26 9 -33 43 -45 45 -16 117 -10
178 14 48 20 49 46 1 124 -20 32 -34 65 -31 73 8 20 64 31 83 15 21 -17 43 4
25 24 -16 20 -40 25 -76 17z"/>
<path d="M6174 13261 c-40 -24 -100 -98 -109 -134 -8 -31 8 -57 34 -57 9 0 33
11 54 25 l37 26 1 -28 c2 -53 4 -58 19 -58 9 0 14 8 13 20 -3 31 18 144 28
151 13 8 11 48 -3 62 -17 17 -38 15 -74 -7z m36 -36 c-6 -8 -9 -18 -6 -24 6
-9 -79 -91 -95 -91 -5 0 -9 7 -9 15 0 19 92 115 109 115 11 0 11 -3 1 -15z"/>
<path d="M5028 13250 c-41 -22 -80 -68 -103 -123 -21 -50 -19 -71 8 -103 30
-34 104 -44 160 -21 58 25 45 35 -38 30 -82 -6 -105 3 -105 41 0 16 10 25 36
35 20 7 58 34 85 60 38 36 47 51 42 69 -3 12 -9 22 -13 22 -5 0 -14 2 -22 5
-7 2 -30 -5 -50 -15z m29 -48 c-14 -15 -41 -36 -59 -47 l-33 -19 16 24 c17 26
75 70 92 70 6 0 -1 -12 -16 -28z"/>
<path d="M7666 13249 c-24 -19 -27 -27 -23 -56 3 -19 17 -47 31 -64 30 -35 32
-51 11 -69 -20 -17 -65 12 -65 41 0 14 -5 19 -17 17 -29 -5 -26 -36 5 -68 39
-39 82 -40 111 -4 27 35 27 43 -9 92 -16 23 -30 51 -30 62 0 30 38 44 86 31
25 -7 42 -7 48 -1 17 17 -8 31 -65 37 -46 4 -58 2 -83 -18z"/>
<path d="M7979 13213 c-32 -31 -59 -63 -59 -72 0 -17 -53 -161 -89 -244 -18
-42 -19 -49 -5 -54 17 -6 34 13 65 77 12 25 26 53 31 63 5 10 6 32 3 48 -6 28
-6 28 24 18 39 -14 76 -5 119 27 61 47 82 134 42 174 -34 34 -66 25 -131 -37z
m116 -2 c15 -49 -54 -135 -104 -129 -23 3 -26 7 -24 42 5 70 110 141 128 87z"/>
<path d="M6347 13230 c-14 -11 -30 -20 -36 -20 -12 0 -25 -22 -45 -79 -12 -37
-12 -43 0 -48 8 -3 16 -4 18 -2 2 2 22 32 45 67 62 92 77 83 40 -22 -14 -41
-17 -62 -10 -69 15 -15 25 -2 45 57 36 109 7 166 -57 116z"/>
<path d="M7348 13229 c-58 -43 -85 -128 -58 -180 32 -59 188 -65 190 -8 0 4
-28 5 -62 2 -49 -4 -67 -1 -83 12 -13 10 -16 18 -8 21 36 16 120 84 131 107
29 60 -47 93 -110 46z m78 -20 c8 -13 -26 -47 -78 -78 -43 -26 -46 -22 -17 25
33 54 79 79 95 53z"/>
<path d="M4071 13214 c-17 -14 -38 -47 -48 -74 -10 -29 -25 -51 -35 -53 -10
-3 -18 -11 -17 -19 0 -8 2 -9 5 -2 3 7 17 0 37 -18 18 -16 42 -34 55 -39 52
-20 154 -3 166 27 5 13 -3 14 -52 8 -75 -10 -103 -7 -121 11 -14 13 -14 15 0
15 8 0 37 11 65 25 50 25 84 67 84 104 0 46 -90 56 -139 15z m97 -12 c10 -7 8
-15 -9 -36 -22 -27 -97 -72 -106 -62 -10 10 19 66 45 86 26 21 49 25 70 12z"/>
<path d="M8850 13225 c-14 -17 -13 -22 23 -106 15 -33 15 -38 -3 -67 -22 -35
-50 -43 -50 -13 0 13 -6 18 -17 17 -10 -2 -18 -8 -17 -14 1 -7 2 -19 3 -27 2
-23 36 -36 65 -25 30 11 66 65 66 98 0 12 -9 40 -20 62 -27 53 -25 60 13 58
23 -2 32 1 32 12 0 22 -77 26 -95 5z"/>
<path d="M4369 13205 c-46 -35 -80 -103 -70 -141 10 -41 43 -42 103 -5 27 17
51 31 54 31 2 0 4 -13 4 -29 0 -33 25 -60 41 -44 7 7 6 18 -1 35 -9 19 -7 36
9 86 25 73 25 72 6 72 -8 0 -21 -12 -30 -27 -8 -16 -25 -39 -37 -53 -25 -28
-105 -67 -115 -57 -9 10 28 87 48 98 10 5 24 7 31 4 21 -8 52 19 45 39 -9 24
-48 20 -88 -9z"/>
<path d="M8313 13219 c-39 -14 -103 -89 -103 -119 0 -34 40 -70 77 -70 56 0
113 56 113 110 0 31 -26 77 -47 82 -11 3 -28 1 -40 -3z m47 -86 c0 -37 -29
-63 -73 -63 -57 0 -42 70 23 102 40 20 50 12 50 -39z"/>
<path d="M9835 13215 c-73 -18 -105 -35 -122 -68 -19 -39 -3 -80 41 -101 51
-24 176 -50 188 -38 15 15 1 32 -25 32 -32 0 -157 36 -169 48 -6 6 -8 22 -4
35 7 30 58 56 115 60 49 3 72 21 45 34 -12 6 -37 5 -69 -2z"/>
<path d="M10966 13215 c-9 -9 -16 -20 -16 -25 0 -4 27 -35 60 -68 33 -34 60
-63 60 -66 0 -11 -60 -36 -87 -36 -39 0 -57 14 -50 39 7 27 -11 38 -30 18 -24
-24 -9 -65 31 -84 39 -18 85 -13 134 17 49 30 44 63 -18 120 -53 49 -62 65
-31 55 11 -3 22 -1 26 5 17 28 -53 50 -79 25z"/>
<path d="M8622 13200 c-18 -11 -35 -26 -38 -34 -3 -8 -12 -17 -20 -20 -11 -4
-12 -2 -2 14 15 24 -4 52 -22 34 -11 -11 -60 -138 -63 -164 -4 -31 29 -18 53
21 14 23 50 64 80 92 47 43 55 47 58 31 2 -11 -11 -52 -28 -92 -17 -40 -28
-77 -25 -82 12 -20 30 -9 41 23 7 17 21 59 34 91 34 94 6 131 -68 86z"/>
<path d="M9067 13170 c-48 -44 -57 -77 -31 -117 27 -43 220 -82 231 -47 2 6
-2 11 -9 11 -28 0 -135 26 -168 40 l-35 15 25 10 c14 6 32 12 40 14 8 2 28 17
43 34 26 29 27 34 14 53 -24 37 -61 33 -110 -13z m59 -27 c-15 -12 -35 -23
-44 -23 -13 1 -8 8 16 31 18 16 38 26 44 23 7 -5 2 -16 -16 -31z"/>
<path d="M10695 13191 c-45 -27 -85 -79 -85 -109 1 -56 70 -104 154 -106 39
-1 51 3 54 15 2 13 -9 17 -58 22 -73 6 -110 28 -110 62 0 21 5 25 30 25 70 0
129 47 115 90 -8 26 -59 27 -100 1z m65 -22 c0 -11 -69 -43 -77 -35 -5 5 56
46 70 46 4 0 7 -5 7 -11z"/>
<path d="M10087 13165 c-52 -51 -47 -99 13 -130 38 -19 74 -19 117 2 60 28 61
88 1 138 -44 37 -86 33 -131 -10z m92 -11 c18 -9 37 -27 43 -40 10 -20 8 -27
-8 -39 -10 -8 -34 -15 -52 -15 -72 0 -94 41 -46 85 32 30 24 28 63 9z"/>
<path d="M15465 13060 c-23 -24 -26 -33 -17 -42 10 -10 19 -6 43 18 25 25 28
33 16 42 -11 9 -20 5 -42 -18z"/>
<path d="M16487 13063 c-11 -10 -8 -41 4 -49 6 -3 18 1 27 9 13 13 13 19 2 31
-14 17 -23 20 -33 9z"/>
<path d="M2246 12521 c-15 -16 -16 -22 -5 -34 17 -18 49 -10 49 13 0 31 -25
42 -44 21z"/>
<path d="M9853 12532 c-6 -4 -16 -27 -23 -52 -17 -69 -51 -171 -67 -207 -14
-29 -19 -32 -66 -35 -38 -2 -52 -7 -52 -18 0 -11 11 -15 39 -16 46 0 53 -12
32 -53 -9 -16 -16 -39 -16 -50 0 -10 -4 -21 -10 -23 -15 -5 -17 -53 -1 -53 8
0 29 39 50 92 25 66 41 93 53 93 23 0 32 18 18 36 -10 11 -9 24 5 62 10 26 22
63 26 82 4 19 14 56 22 81 15 46 11 74 -10 61z"/>
<path d="M10032 12493 c-5 -10 -13 -36 -16 -58 -12 -64 -66 -213 -108 -299
-55 -110 -44 -124 38 -46 67 62 109 89 121 77 4 -4 -4 -32 -16 -62 -22 -53
-25 -94 -7 -98 6 -1 14 14 19 33 5 19 12 40 17 45 4 6 13 27 18 48 9 33 8 41
-9 58 -25 25 -37 24 -82 -7 -21 -14 -40 -24 -43 -21 -2 2 9 37 26 77 35 86 82
249 74 261 -8 14 -23 10 -32 -8z"/>
<path d="M2262 12461 c-8 -5 -17 -23 -21 -41 -6 -29 -12 -35 -52 -46 -51 -15
-83 -44 -77 -69 1 -10 28 -31 57 -47 30 -16 56 -30 57 -31 3 -5 -14 -239 -19
-243 -9 -9 -66 26 -81 49 -8 12 -17 43 -21 70 -6 49 -15 57 -34 34 -14 -18 9
-109 35 -139 10 -11 38 -29 62 -40 l42 -19 0 -83 c0 -90 14 -146 36 -146 19 0
29 27 16 43 -14 17 -25 129 -17 166 5 25 12 31 32 31 37 0 110 46 128 80 25
49 19 85 -22 131 -20 22 -56 52 -80 66 -36 21 -43 30 -39 47 3 12 6 36 6 54 0
31 2 33 32 30 23 -2 36 -10 45 -28 7 -14 18 -25 25 -25 22 0 20 32 -5 61 -19
21 -32 27 -60 26 -24 -1 -35 3 -32 11 18 61 15 76 -13 58z m-28 -138 c-1 -16
-2 -33 -3 -40 -1 -8 -13 -7 -41 4 -47 19 -47 33 1 50 46 16 45 17 43 -14z m90
-155 c26 -22 52 -52 57 -65 13 -35 -13 -78 -61 -103 -58 -30 -70 -27 -70 18 0
70 13 192 20 192 4 0 28 -19 54 -42z"/>
<path d="M6296 12448 c-2 -7 -7 -41 -10 -74 -3 -34 -14 -83 -23 -110 -18 -47
-20 -49 -81 -67 -39 -12 -62 -24 -62 -33 0 -22 23 -26 56 -9 48 25 57 20 38
-22 -46 -106 -53 -163 -20 -163 16 0 29 27 20 42 -3 5 9 47 27 93 30 78 34 84
63 87 40 4 51 38 12 38 -14 0 -26 1 -26 3 0 1 6 23 14 48 8 25 14 68 14 96 1
27 2 55 4 62 4 18 -21 26 -26 9z"/>
<path d="M6037 12423 c-4 -3 -7 -22 -7 -42 -1 -20 -6 -63 -13 -96 -12 -58 -14
-60 -47 -65 -44 -6 -48 -34 -7 -38 24 -3 28 -7 23 -25 -17 -58 -28 -128 -23
-141 4 -9 13 -16 22 -16 11 0 15 10 15 37 0 20 7 63 16 95 16 55 18 58 49 58
32 0 61 20 48 33 -3 4 -22 7 -41 7 -31 0 -34 2 -28 23 33 121 29 207 -7 170z"/>
<path d="M10574 12417 c-2 -7 -24 -71 -48 -143 -24 -71 -54 -153 -67 -182 -25
-56 -18 -84 16 -64 12 6 27 5 47 -6 20 -9 47 -13 81 -9 42 4 56 10 84 41 39
42 43 78 11 100 -36 25 -89 20 -139 -13 -24 -17 -44 -29 -45 -28 -1 1 20 70
47 152 27 83 49 153 49 158 0 12 -30 8 -36 -6z m84 -283 c28 -8 28 -35 -1 -62
-29 -27 -74 -37 -110 -23 -27 11 -27 11 -10 30 17 18 83 61 93 61 3 0 15 -3
28 -6z"/>
<path d="M7834 12383 c-44 -57 -76 -110 -124 -203 -24 -47 -57 -105 -72 -129
-15 -25 -28 -53 -28 -63 0 -38 28 -15 62 50 97 186 124 232 169 295 45 61 53
87 30 87 -5 0 -22 -17 -37 -37z"/>
<path d="M8710 12395 c-13 -16 -7 -45 9 -45 11 0 31 32 31 49 0 16 -26 13 -40
-4z"/>
<path d="M5727 12394 c-4 -4 -7 -28 -7 -53 0 -26 -15 -89 -36 -150 -36 -104
-48 -191 -28 -198 5 -2 34 29 63 67 84 113 106 110 67 -9 -21 -64 -25 -85 -16
-101 15 -27 35 -20 33 11 0 13 6 44 14 69 38 113 35 150 -14 150 -18 0 -40
-14 -70 -45 -24 -25 -43 -43 -43 -40 0 3 14 44 31 93 31 89 44 201 23 209 -5
2 -13 0 -17 -3z"/>
<path d="M5020 12370 c-19 -5 -84 -12 -143 -16 -59 -4 -110 -10 -112 -14 -2
-4 1 -14 8 -22 13 -17 23 -16 253 18 56 8 113 12 127 9 32 -8 52 2 38 19 -12
14 -123 18 -171 6z"/>
<path d="M7618 12369 c-10 -5 -18 -15 -18 -20 0 -6 -15 -36 -33 -67 -88 -148
-167 -294 -167 -307 0 -24 38 -18 45 8 11 33 132 254 177 319 45 66 43 95 -4
67z"/>
<path d="M1039 12360 c-5 -30 -2 -35 21 -37 14 -1 43 -5 66 -8 l41 -7 -43 -40
c-55 -50 -58 -78 -11 -78 49 0 117 -51 117 -88 -1 -80 -133 -129 -247 -91 -31
10 -33 12 -16 24 13 10 15 17 7 25 -15 15 -74 -14 -74 -36 0 -22 84 -56 155
-62 77 -6 147 22 188 75 41 55 36 88 -19 140 -26 24 -55 43 -65 43 -58 0 24
62 124 94 10 3 17 12 14 19 -2 8 -29 12 -83 13 -43 0 -97 5 -119 12 -49 15
-55 15 -56 2z"/>
<path d="M3958 12182 c-3 -204 0 -247 20 -247 9 0 13 50 14 215 2 193 0 215
-15 218 -14 3 -16 -16 -19 -186z"/>
<path d="M9575 12350 c-7 -12 12 -40 27 -40 13 0 6 43 -9 47 -6 2 -14 -1 -18
-7z"/>
<path d="M4940 12278 c0 -13 7 -36 15 -51 8 -15 11 -25 6 -23 -8 5 -31 -75
-48 -166 l-5 -28 -89 0 c-72 0 -91 -3 -96 -16 -8 -20 11 -39 29 -28 7 5 33 10
58 11 142 4 270 16 270 25 0 5 5 6 10 3 6 -3 10 -2 10 3 0 17 -31 22 -96 16
l-63 -7 14 59 c7 33 18 72 24 87 17 45 14 78 -9 84 -19 5 -19 6 -4 18 19 13
11 35 -12 35 -8 0 -14 -10 -14 -22z"/>
<path d="M3175 12246 c-69 -32 -135 -107 -135 -152 0 -36 45 -80 94 -94 67
-18 151 -19 151 0 0 11 -12 15 -43 16 -67 3 -131 24 -152 51 -17 22 -18 28 -6
52 21 39 65 77 116 100 41 18 46 19 63 4 24 -22 44 -4 28 26 -15 28 -53 27
-116 -3z"/>
<path d="M6552 12253 c-18 -9 -53 -39 -78 -67 -24 -28 -52 -51 -61 -51 -16 0
-34 -42 -47 -113 -9 -50 -34 -132 -57 -187 -22 -53 -19 -84 6 -67 10 7 65 138
69 165 4 26 19 38 40 33 63 -16 158 53 202 147 50 108 11 182 -74 140z m59
-35 c8 -89 -87 -218 -160 -218 -24 0 -26 3 -26 45 0 28 5 45 12 45 6 0 21 15
32 34 45 72 139 134 142 94z"/>
<path d="M6796 12249 c-38 -30 -34 -64 14 -108 22 -20 40 -44 40 -53 0 -27
-49 -58 -91 -58 -32 0 -39 3 -39 20 0 24 -32 27 -50 4 -29 -33 60 -76 124 -60
14 3 41 20 61 37 49 43 47 77 -6 122 -26 23 -40 42 -37 54 4 22 43 29 64 12
12 -10 18 -9 31 4 42 42 -60 66 -111 26z"/>
<path d="M11340 12230 c-9 -16 -8 -22 6 -27 9 -3 20 0 25 8 5 8 9 10 9 4 -1
-5 -12 -28 -25 -50 -27 -43 -32 -94 -13 -113 19 -19 68 -14 115 13 54 32 61
57 30 115 -22 41 -27 45 -60 45 -20 0 -41 6 -48 13 -18 17 -27 15 -39 -8z
m130 -104 c0 -7 -20 -24 -45 -37 -60 -32 -77 -18 -50 41 26 57 44 66 73 34 12
-14 22 -31 22 -38z"/>
<path d="M7203 12219 c-37 -23 -41 -36 -15 -41 36 -7 81 29 66 53 -8 13 -15
11 -51 -12z"/>
<path d="M9199 12217 c-57 -48 -73 -106 -34 -121 18 -7 72 11 108 36 l28 20
-6 -44 c-8 -54 -13 -83 -26 -132 -10 -38 -11 -38 -50 -32 -49 8 -96 -14 -111
-52 -18 -46 -14 -159 7 -182 10 -11 23 -20 30 -20 21 0 84 75 110 132 17 38
31 55 39 52 20 -8 28 12 12 29 -12 12 -12 22 0 73 18 78 35 231 28 249 -7 18
-31 20 -37 3 -4 -10 -7 -10 -18 0 -19 18 -51 14 -80 -11z m56 -27 c4 -6 12 -7
18 -3 7 4 5 -1 -3 -12 -13 -15 -68 -45 -85 -45 -12 0 -3 19 21 44 29 28 39 32
49 16z m-11 -288 c8 -14 -49 -125 -77 -151 l-26 -24 -7 27 c-11 45 1 128 22
143 20 14 80 18 88 5z"/>
<path d="M11139 12223 c-36 -22 -89 -103 -89 -135 0 -40 87 -99 126 -84 25 10
11 30 -28 39 -20 5 -44 17 -53 27 -15 16 -15 21 -2 47 8 16 28 41 43 57 22 21
35 26 57 22 20 -4 29 -1 34 10 13 33 -44 44 -88 17z"/>
<path d="M8551 12193 c-55 -67 -74 -126 -49 -151 24 -24 143 -8 143 18 0 16
-18 17 -77 5 -35 -7 -38 -6 -38 16 0 13 18 48 40 77 37 48 43 72 20 72 -5 0
-22 -17 -39 -37z"/>
<path d="M8268 12163 c-33 -32 -67 -58 -75 -58 -11 0 -20 -18 -29 -55 -8 -30
-18 -64 -23 -75 -5 -11 -15 -36 -21 -55 -7 -19 -24 -59 -37 -88 -26 -57 -27
-87 -3 -87 16 0 84 156 95 218 4 20 8 37 9 37 2 0 17 -7 35 -16 20 -10 42 -13
61 -9 35 8 93 62 84 77 -4 7 -2 8 5 4 16 -11 40 52 37 97 -7 86 -54 89 -138
10z m104 4 c12 -62 -56 -157 -112 -157 -47 0 -55 29 -19 73 16 20 25 38 19 40
-6 3 -5 4 2 3 7 -2 30 12 51 30 44 40 53 42 59 11z"/>
<path d="M9501 12198 c-32 -81 -38 -169 -9 -140 13 13 48 143 41 155 -8 14
-23 7 -32 -15z"/>
<path d="M10179 12218 c0 -2 -2 -16 -3 -33 -2 -16 -9 -56 -15 -88 -10 -50 -10
-62 3 -81 41 -64 148 -18 212 91 14 24 22 48 19 53 -12 19 -33 10 -43 -18 -22
-63 -109 -133 -147 -118 -19 7 -19 56 0 121 17 54 14 75 -10 75 -8 0 -15 -1
-16 -2z"/>
<path d="M3718 12202 c-9 -4 -31 -20 -48 -35 -31 -28 -31 -30 -25 -90 8 -71
10 -77 31 -77 12 0 15 10 13 38 -4 66 1 89 20 113 l19 24 24 -22 c13 -13 27
-23 31 -23 16 0 5 38 -16 58 -25 24 -24 24 -49 14z"/>
<path d="M11644 12193 c-17 -52 -29 -77 -60 -120 -19 -27 -34 -56 -34 -65 0
-32 30 -19 59 26 37 59 131 138 131 111 0 -3 -9 -32 -21 -65 -20 -57 -19 -80
2 -80 5 0 48 36 95 81 47 44 88 78 91 76 2 -3 -2 -18 -10 -34 -30 -58 -24
-103 15 -103 18 0 20 4 15 35 -4 24 1 50 14 79 19 45 17 76 -6 76 -18 0 -84
-46 -133 -93 l-42 -42 6 35 c4 19 8 37 10 39 2 2 -1 12 -7 22 -12 23 -38 24
-65 4 -26 -20 -34 -19 -31 6 3 27 -21 37 -29 12z"/>
<path d="M3395 12173 c-56 -55 -41 -159 26 -182 48 -16 101 2 138 47 17 20 31
46 31 57 0 26 -27 65 -45 65 -22 0 -29 -22 -12 -35 55 -40 -52 -135 -109 -97
-40 26 -38 97 2 112 29 11 31 26 5 40 -15 7 -24 6 -36 -7z"/>
<path d="M7863 12124 c-98 -104 -67 -180 48 -120 28 14 53 26 55 26 2 0 4 -10
4 -23 0 -28 25 -65 36 -54 5 4 9 29 10 55 1 26 5 59 9 75 5 19 4 27 -5 27 -7
0 -25 11 -42 25 -42 35 -74 32 -115 -11z m100 -22 c15 -17 13 -20 -37 -50 -88
-52 -110 -40 -54 29 34 43 65 50 91 21z"/>
<path d="M4644 12135 c-4 -8 -10 -15 -16 -15 -5 0 -6 5 -3 10 3 6 0 10 -8 10
-23 0 -87 -29 -87 -40 0 -18 18 -19 64 -4 43 15 48 15 65 -1 23 -20 36 -5 27
31 -7 27 -33 32 -42 9z"/>
<path d="M7161 12032 c-31 -27 -32 -29 -16 -45 9 -9 20 -17 25 -17 10 0 40 57
40 77 0 19 -11 16 -49 -15z"/>
<path d="M1381 12016 c-28 -30 -25 -70 5 -74 16 -2 23 5 33 38 18 62 1 78 -38
36z"/>
<path d="M10812 12021 c-20 -12 -10 -46 12 -46 13 0 20 8 23 28 4 28 -9 35
-35 18z"/>
<path d="M8804 11985 c-4 -9 -2 -21 4 -27 16 -16 47 -5 47 17 0 26 -42 34 -51
10z"/>
<path d="M3594 11493 c-8 -21 -26 -63 -41 -93 -16 -30 -29 -56 -29 -58 -1 -2
-17 6 -35 17 -37 22 -79 28 -79 10 0 -6 -25 -33 -55 -61 -30 -27 -55 -56 -55
-63 0 -7 -6 -15 -13 -18 -19 -7 -50 -75 -43 -93 3 -8 2 -13 -3 -10 -12 8 -21
-29 -21 -83 0 -35 5 -48 29 -69 l28 -27 -33 -69 c-19 -39 -34 -78 -34 -87 0
-31 12 -49 32 -49 16 0 18 5 12 36 -5 28 0 47 25 98 29 56 35 63 64 63 76 2
128 24 177 75 71 76 89 168 47 250 l-23 45 49 102 c26 55 46 105 42 111 -12
19 -26 10 -41 -27z m-109 -173 c17 -19 12 -29 -114 -225 -81 -128 -77 -124
-101 -96 -11 13 -20 31 -20 41 0 43 41 144 76 188 49 61 64 73 86 66 22 -7 35
20 19 40 -17 21 34 8 54 -14z m75 -148 c0 -60 -62 -151 -124 -181 -38 -19 -96
-28 -96 -16 0 6 71 121 113 184 18 27 41 64 51 82 l19 34 18 -40 c10 -22 19
-50 19 -63z"/>
<path d="M14700 11486 c0 -14 -14 -63 -30 -109 l-31 -84 -57 -12 c-31 -6 -66
-12 -77 -14 -11 -1 -20 -9 -20 -17 0 -16 11 -17 88 -5 l47 8 -16 -39 c-9 -22
-40 -90 -70 -151 -55 -115 -61 -133 -45 -133 20 0 75 101 143 264 12 28 25 56
30 61 5 6 36 15 70 20 36 6 63 16 66 24 4 11 -8 13 -57 9 -33 -2 -61 -3 -61
-2 0 2 9 27 21 56 19 48 24 68 31 123 2 12 -4 21 -14 23 -13 3 -18 -3 -18 -22z"/>
<path d="M15444 11453 c-16 -20 -34 -41 -39 -47 -6 -6 -24 -29 -40 -51 -50
-67 -58 -72 -112 -80 -29 -4 -56 -11 -59 -17 -12 -19 11 -26 54 -19 42 8 42 8
29 -13 -8 -11 -23 -46 -34 -76 -23 -64 -17 -109 19 -135 29 -19 111 -20 128 0
19 23 4 34 -34 24 -44 -12 -84 3 -91 34 -7 26 24 114 55 158 16 22 30 28 77
33 71 9 93 15 93 26 0 5 -28 10 -62 12 l-62 3 68 83 c59 73 73 102 47 102 -4
0 -21 -17 -37 -37z"/>
<path d="M13486 11438 c-3 -7 -7 -30 -11 -50 -3 -21 -17 -62 -31 -92 -25 -54
-41 -66 -106 -82 -19 -4 -28 -13 -28 -25 0 -22 6 -23 49 -8 18 6 34 9 37 6 5
-4 -37 -123 -57 -159 -9 -18 -2 -48 11 -48 10 0 32 48 66 149 31 89 39 97 111
104 24 3 39 10 41 20 3 13 -5 15 -47 11 -28 -3 -51 -3 -51 0 0 2 9 25 20 51
24 55 30 126 13 132 -7 3 -15 -1 -17 -9z"/>
<path d="M12667 11433 c-4 -3 -7 -18 -7 -32 1 -35 -72 -219 -88 -226 -8 -3
-45 -8 -83 -11 -57 -6 -69 -10 -67 -23 3 -12 14 -16 48 -15 25 1 57 5 72 9
l27 7 -24 -62 c-34 -88 -41 -130 -22 -130 10 0 22 19 32 53 10 28 26 73 37 99
17 40 23 46 45 42 32 -6 65 4 60 19 -2 7 -20 14 -39 17 l-36 5 34 82 c41 98
55 173 32 173 -8 0 -18 -3 -21 -7z"/>
<path d="M17200 11428 c0 -6 -17 -34 -38 -62 -21 -28 -58 -86 -82 -128 -37
-65 -47 -76 -68 -75 -31 2 -42 -22 -13 -30 26 -7 26 -4 0 -63 -21 -50 -22 -81
-3 -87 7 -2 21 27 35 67 l23 70 47 0 c58 0 79 7 79 27 0 13 -10 15 -54 11
l-55 -5 32 59 c18 32 56 90 85 129 56 77 63 99 32 99 -11 0 -20 -5 -20 -12z"/>
<path d="M3136 11365 l-28 -65 -50 0 c-64 0 -77 -8 -121 -72 -66 -97 -70 -190
-12 -237 l24 -18 -30 -57 c-31 -57 -35 -101 -9 -101 8 0 17 13 20 30 4 17 16
49 28 71 19 38 26 42 69 49 26 4 63 14 80 22 40 18 91 85 99 128 8 43 -11 107
-42 144 -20 24 -23 34 -15 50 6 11 11 27 11 36 0 9 9 26 20 37 22 24 22 41 -2
46 -10 2 -24 -19 -42 -63z m-58 -103 c9 -6 -2 -39 -48 -130 -32 -67 -64 -122
-70 -122 -5 0 -17 11 -26 25 -35 54 16 198 69 192 16 -1 23 4 25 21 3 22 26
29 50 14z m72 -44 c42 -69 12 -166 -63 -202 -37 -17 -81 -22 -75 -7 8 22 113
240 116 241 1 0 11 -15 22 -32z"/>
<path d="M12877 11424 c-4 -4 -7 -17 -7 -29 0 -36 -141 -399 -164 -422 -12
-13 -5 -33 12 -33 10 0 26 15 36 35 24 43 129 145 150 145 15 0 15 -3 0 -37
-46 -108 -54 -146 -29 -141 9 2 27 33 42 73 37 103 39 121 14 135 -28 14 -54
6 -97 -32 l-35 -31 22 54 c44 112 90 251 87 266 -3 18 -21 27 -31 17z"/>
<path d="M7516 11411 c-3 -5 -11 -65 -16 -134 -10 -124 -32 -210 -66 -262 -20
-31 -67 -57 -87 -49 -33 12 -29 82 8 137 12 19 27 27 53 29 49 4 51 32 4 36
-44 4 -75 -17 -101 -71 -56 -117 7 -207 104 -147 65 40 108 157 120 327 4 55
8 109 8 118 2 20 -18 31 -27 16z"/>
<path d="M10664 11379 c-13 -15 -15 -23 -7 -26 8 -3 -2 -33 -27 -91 l-39 -87
-78 0 c-63 0 -78 -3 -78 -15 0 -18 73 -32 119 -23 25 4 28 3 22 -13 -4 -10
-14 -39 -23 -66 -8 -26 -19 -46 -23 -43 -16 10 -19 -12 -9 -48 12 -44 36 -49
44 -9 14 69 52 176 65 182 8 4 28 12 44 16 35 11 41 23 23 48 -14 18 -15 18
-35 -2 -12 -12 -24 -22 -27 -22 -2 0 14 39 35 86 41 89 50 134 27 134 -8 0
-22 -10 -33 -21z"/>
<path d="M10825 11371 c-3 -6 -4 -15 0 -21 3 -5 -28 -77 -70 -159 -73 -148
-88 -191 -62 -191 6 0 37 27 67 60 40 44 64 62 89 67 32 6 34 5 27 -18 -4 -13
-9 -48 -13 -76 -5 -44 -3 -53 10 -53 17 0 23 19 33 107 6 62 6 63 -22 73 -32
13 -75 0 -112 -34 -16 -14 -5 15 38 98 34 65 60 125 58 134 -4 20 -33 28 -43
13z"/>
<path d="M2640 11353 c-48 -34 -62 -48 -87 -91 -20 -34 -23 -46 -13 -55 9 -9
15 -8 24 7 53 86 114 136 150 123 13 -5 14 -11 5 -34 -21 -56 -180 -282 -224
-318 -47 -38 -56 -61 -30 -72 10 -3 33 11 62 41 26 25 51 46 55 46 4 0 8 -13
8 -30 0 -45 35 -72 90 -68 32 2 45 7 45 18 0 10 -8 14 -27 12 -41 -4 -65 13
-72 52 -4 20 -13 39 -21 43 -12 7 -7 20 24 67 22 32 37 64 35 70 -2 6 6 16 17
21 30 13 80 112 77 150 -3 28 -6 30 -48 33 -31 2 -53 -3 -70 -15z"/>
<path d="M17338 11328 c-8 -13 -31 -60 -51 -105 -20 -46 -57 -113 -81 -150
-35 -51 -43 -70 -34 -80 9 -11 14 -11 28 2 9 8 20 15 24 15 4 0 19 9 34 20 31
22 136 65 130 53 -2 -5 -14 -30 -28 -56 -31 -60 -21 -83 34 -80 57 4 116 22
123 39 8 21 -2 27 -24 16 -31 -16 -113 -25 -113 -12 0 6 14 31 30 55 35 50 38
71 11 80 -18 5 -142 -35 -166 -55 -6 -5 19 52 57 127 37 75 65 140 62 144 -9
15 -21 10 -36 -13z"/>
<path d="M11155 11330 c-4 -7 -3 -16 3 -22 14 -14 45 -2 40 15 -6 16 -34 21
-43 7z"/>
<path d="M16924 11286 c-8 -22 3 -49 19 -43 6 2 12 14 12 27 0 27 -22 39 -31
16z"/>
<path d="M14305 11260 c-45 -18 -50 -36 -32 -108 19 -74 15 -108 -15 -117 -28
-10 -47 11 -50 58 -4 51 -20 51 -31 0 -15 -71 34 -115 98 -89 46 20 58 64 38
139 -9 30 -13 62 -10 70 9 24 57 31 78 11 15 -13 22 -15 31 -6 9 9 7 16 -7 32
-19 21 -63 26 -100 10z"/>
<path d="M4193 11225 c-23 -19 -46 -35 -52 -35 -6 0 -11 -10 -11 -22 0 -12
-14 -60 -32 -105 -23 -63 -28 -87 -20 -95 18 -18 29 -1 68 103 36 95 74 149
105 149 9 0 19 -7 23 -15 7 -19 36 -20 36 -1 0 15 -50 56 -67 56 -5 0 -28 -16
-50 -35z"/>
<path d="M4956 11233 c-30 -30 -93 -138 -99 -169 -2 -10 -23 -59 -46 -108 -46
-97 -58 -140 -43 -150 12 -7 34 22 86 117 28 50 42 67 58 67 35 0 141 125 147
173 0 4 3 18 7 31 16 65 -58 91 -110 39z m74 -29 c0 -46 -66 -151 -112 -175
-19 -10 -19 -9 -3 21 9 17 13 36 9 42 -4 7 -3 8 4 4 9 -5 24 37 27 76 0 4 8
16 17 27 9 11 15 21 13 23 -2 2 7 5 20 6 21 1 25 -3 25 -24z"/>
<path d="M15610 11247 c-46 -16 -48 -38 -11 -96 47 -72 39 -106 -21 -94 -20 4
-24 9 -20 25 4 16 1 19 -14 16 -12 -2 -20 -13 -22 -31 -3 -21 2 -29 23 -37 34
-13 81 -13 106 0 29 16 24 68 -11 124 -17 26 -28 52 -25 57 9 13 59 11 73 -3
9 -9 15 -9 24 0 10 10 9 15 -2 26 -22 22 -61 27 -100 13z"/>
<path d="M4735 11233 c-55 -14 -68 -58 -36 -128 19 -43 17 -63 -8 -82 -27 -21
-41 -15 -41 16 0 39 -17 49 -31 18 -9 -19 -8 -31 2 -53 18 -37 41 -41 84 -14
41 25 53 61 36 104 -30 74 -31 85 -9 97 12 6 35 12 52 13 42 2 42 30 1 33 -16
0 -39 -1 -50 -4z"/>
<path d="M5755 11226 c-17 -7 -36 -25 -43 -40 -10 -23 -9 -34 8 -73 11 -26 18
-55 14 -65 -6 -21 -93 -68 -125 -68 -13 0 -23 8 -26 20 -7 26 -25 21 -29 -8
-5 -30 35 -55 72 -46 40 10 101 41 124 64 24 24 26 70 4 111 -20 40 -10 67 29
77 33 8 44 35 17 39 -8 1 -29 -4 -45 -11z"/>
<path d="M7960 11227 c-16 -8 -26 -23 -28 -42 -3 -23 4 -36 37 -66 22 -21 43
-49 47 -63 7 -31 -22 -85 -51 -92 -41 -10 -103 29 -75 46 7 4 10 15 7 24 -5
12 -12 14 -29 7 -31 -11 -34 -35 -8 -71 40 -56 129 -58 165 -3 43 65 33 121
-32 181 -22 20 -33 36 -27 42 15 15 71 15 88 0 27 -21 45 4 21 30 -21 23 -76
27 -115 7z"/>
<path d="M16435 11211 c-89 -33 -103 -40 -110 -51 -11 -17 11 -36 27 -23 13
10 122 53 135 53 4 0 -35 -43 -86 -95 -51 -52 -91 -100 -88 -107 8 -23 57 -10
130 33 44 26 72 38 75 31 7 -23 32 -12 32 13 0 48 -27 45 -120 -11 -44 -27
-43 -26 28 48 71 75 87 110 56 122 -21 8 -22 8 -79 -13z"/>
<path d="M5470 11200 c-55 -29 -142 -152 -122 -172 18 -18 38 -2 70 54 31 54
79 98 107 98 25 0 18 -58 -16 -118 -31 -55 -33 -96 -4 -72 23 19 75 131 75
162 0 32 -31 68 -57 68 -10 -1 -34 -9 -53 -20z"/>
<path d="M5923 11191 c-137 -99 -103 -271 54 -271 49 0 113 27 113 48 0 19
-19 52 -30 52 -6 0 -10 -10 -10 -22 0 -15 -11 -29 -28 -39 -25 -14 -34 -14
-75 -2 -83 24 -103 97 -46 166 41 50 63 61 83 41 14 -14 13 -18 -13 -39 -15
-14 -40 -29 -55 -34 -28 -11 -34 -29 -12 -37 13 -5 55 11 66 25 3 4 20 17 38
30 17 12 32 28 32 34 0 15 -55 77 -68 77 -5 0 -27 -13 -49 -29z"/>
<path d="M7683 11210 c-13 -5 -43 -29 -67 -53 -78 -78 -94 -187 -31 -215 62
-28 167 -22 173 10 3 14 -6 15 -62 11 -108 -9 -137 25 -97 113 20 43 85 104
112 104 54 0 9 -68 -66 -100 -43 -19 -55 -33 -36 -44 15 -10 79 23 121 60 43
39 50 66 24 102 -16 23 -35 26 -71 12z"/>
<path d="M6898 11200 c-73 -22 -138 -101 -138 -169 0 -71 62 -111 173 -111 41
0 48 3 45 18 -2 13 -17 18 -68 22 -36 3 -75 11 -87 18 -53 30 -34 109 38 162
45 32 68 37 100 19 25 -13 51 -5 43 14 -4 11 -61 39 -75 36 -2 0 -16 -4 -31
-9z"/>
<path d="M4430 11193 c-19 -7 -76 -60 -100 -93 -10 -14 -21 -42 -25 -61 -5
-30 -2 -41 20 -67 22 -26 34 -32 67 -32 41 0 78 14 78 30 0 12 -40 13 -59 1
-18 -12 -60 14 -71 43 -5 14 -1 33 13 59 26 47 96 102 111 87 12 -12 -40 -66
-69 -71 -24 -5 -31 -27 -11 -35 9 -4 36 9 66 31 39 28 50 43 50 64 0 43 -27
60 -70 44z"/>
<path d="M5170 11158 c-61 -64 -74 -92 -58 -126 12 -24 19 -27 66 -27 43 1 57
6 82 30 35 33 38 71 12 125 -25 51 -53 51 -102 -2z m80 -41 c13 -23 13 -28 -5
-47 -25 -28 -57 -40 -84 -33 -30 8 -26 27 15 73 41 45 52 46 74 7z"/>
<path d="M14747 11165 c-60 -42 -89 -123 -49 -143 20 -11 34 -7 83 24 l37 23
-11 -35 c-9 -28 -8 -38 5 -51 21 -20 37 -10 31 21 -3 15 5 43 23 74 l27 49
-33 31 c-40 39 -64 40 -113 7z m83 -30 c0 -16 -107 -92 -116 -82 -9 9 16 50
44 74 31 26 72 31 72 8z"/>
<path d="M7114 11151 c-114 -84 -128 -152 -39 -187 42 -16 48 -16 88 0 56 21
86 53 94 98 4 28 1 40 -15 56 -11 11 -17 23 -14 27 10 10 -28 35 -53 35 -12 0
-40 -13 -61 -29z m106 -81 c0 -55 -91 -99 -146 -70 -35 19 -30 42 20 88 l44
41 41 -16 c34 -13 41 -21 41 -43z"/>
<path d="M9886 11158 c-9 -12 -16 -30 -16 -40 0 -9 -14 -39 -31 -67 -19 -30
-29 -57 -25 -67 9 -23 29 -5 62 57 26 47 89 103 106 93 13 -8 9 -36 -13 -84
-26 -58 -31 -99 -11 -96 14 2 24 25 60 128 15 45 15 48 -3 68 -15 17 -27 20
-51 15 -18 -3 -35 -1 -39 5 -10 16 -22 12 -39 -12z"/>
<path d="M11576 11171 c-3 -5 -16 -6 -29 -4 -37 7 -131 -73 -135 -114 -6 -62
78 -85 130 -36 l28 27 0 -37 c0 -20 -5 -58 -11 -85 -10 -47 -12 -50 -48 -55
-53 -7 -86 -31 -110 -81 -26 -52 -45 -183 -34 -227 11 -41 35 -58 58 -39 28
23 98 150 126 228 14 42 31 78 36 79 6 2 31 -12 56 -31 46 -35 68 -34 45 3 -6
11 -32 32 -56 47 -40 25 -43 31 -38 58 4 17 9 83 12 147 6 101 5 117 -9 122
-9 3 -19 2 -21 -2z m-16 -55 c0 -29 -46 -81 -74 -84 -51 -6 -53 14 -6 58 43
40 80 52 80 26z m-20 -285 c0 -46 -115 -281 -138 -281 -2 0 -2 37 0 83 7 107
34 172 80 192 39 17 58 19 58 6z"/>
<path d="M15010 11158 c-39 -26 -96 -126 -81 -141 18 -18 41 2 68 57 27 56 57
78 98 73 12 -1 20 4 20 13 0 26 -65 24 -105 -2z"/>
<path d="M9655 11160 c-31 -13 -84 -73 -93 -106 -5 -16 -6 -40 -2 -54 11 -45
88 -44 137 2 l23 22 -11 -33 c-8 -24 -9 -39 0 -57 13 -30 36 -32 28 -3 -3 11
10 62 29 112 19 51 34 95 34 100 0 4 -13 7 -29 7 -17 0 -33 5 -36 10 -7 12
-52 12 -80 0z m68 -34 c23 -18 14 -39 -43 -89 -46 -43 -90 -50 -90 -16 0 33
37 85 73 103 39 19 37 19 60 2z"/>
<path d="M11034 11143 c-3 -10 -19 -46 -35 -80 -16 -34 -29 -70 -29 -82 0 -36
20 -33 35 6 9 21 29 64 45 96 17 32 28 63 24 68 -9 15 -34 10 -40 -8z"/>
<path d="M11255 11146 c-47 -17 -52 -23 -96 -97 -28 -48 -38 -74 -31 -81 14
-14 29 -3 51 41 20 38 93 111 111 111 12 0 12 6 -1 -66 -6 -32 -15 -65 -21
-71 -12 -15 6 -43 26 -43 13 0 43 148 38 185 -5 35 -26 41 -77 21z"/>
<path d="M13059 11130 c-42 -34 -64 -79 -55 -115 8 -31 36 -33 82 -4 35 21 54
19 54 -7 0 -8 7 -14 15 -14 9 0 15 9 15 23 0 12 9 36 20 52 22 33 26 60 10 70
-6 4 -17 2 -25 -5 -11 -9 -16 -7 -25 9 -15 29 -49 26 -91 -9z m69 -33 c3 -14
-60 -67 -80 -67 -18 0 -6 34 22 62 31 31 53 33 58 5z"/>
<path d="M10104 11138 c-14 -22 -23 -121 -13 -140 6 -11 21 -18 38 -18 l29 0
-44 -77 c-45 -79 -61 -130 -50 -159 9 -23 22 -9 35 38 6 24 29 75 51 113 95
163 113 191 133 213 14 15 17 26 11 32 -18 18 -39 1 -74 -59 -24 -42 -39 -57
-51 -54 -9 3 -20 0 -23 -6 -17 -28 -29 -9 -22 37 3 26 7 56 8 66 3 22 -17 33
-28 14z"/>
<path d="M16657 11092 c-15 -32 -37 -68 -51 -81 -26 -25 -56 -23 -56 4 0 8 -7
15 -15 15 -19 0 -20 -40 -2 -64 20 -28 69 -12 111 35 20 21 36 44 36 50 0 5 8
28 19 49 10 21 16 41 13 44 -15 16 -32 0 -55 -52z"/>
<path d="M16819 11128 c-7 -13 -23 -36 -35 -51 -27 -32 -31 -67 -9 -67 9 0 20
10 26 23 5 12 21 37 34 56 14 19 25 40 25 47 0 22 -28 16 -41 -8z"/>
<path d="M8317 10924 c-4 -4 -7 -21 -7 -37 0 -16 -9 -42 -21 -58 -20 -29 -20
-59 1 -59 16 0 61 99 58 128 -3 26 -18 38 -31 26z"/>
<path d="M6035 10568 c-36 -20 -86 -73 -100 -106 -20 -47 -45 -173 -45 -227 0
-29 -5 -45 -12 -46 -7 -1 -20 -2 -28 -3 -8 0 -16 -9 -18 -18 -3 -14 3 -18 26
-18 l29 0 7 -127 c7 -127 13 -152 36 -138 9 5 10 25 6 64 -3 31 -9 86 -12 124
l-7 67 32 0 c21 0 31 5 31 15 0 9 -9 15 -25 15 -15 0 -28 7 -32 17 -8 20 12
162 32 231 26 85 110 149 141 107 7 -10 11 -22 8 -27 -9 -14 7 -48 23 -48 13
0 15 9 10 45 -8 73 -49 102 -102 73z"/>
<path d="M8557 10463 c-2 -4 -19 -53 -37 -108 -18 -55 -34 -102 -36 -103 -5
-7 -79 21 -97 36 -29 25 -59 2 -101 -78 -36 -68 -38 -76 -34 -146 3 -67 6 -76
35 -106 l33 -34 -45 -94 c-42 -89 -58 -160 -35 -160 6 0 13 -1 18 -2 4 -2 8
15 9 36 1 21 21 78 44 125 l41 86 53 2 c71 2 154 45 182 96 26 47 9 116 -44
178 l-30 34 34 100 c19 55 35 109 36 119 2 19 -17 34 -26 19z m-106 -244 c17
-9 15 -16 -33 -107 -29 -53 -59 -109 -68 -124 l-17 -28 -22 24 c-44 47 -38
143 15 228 23 35 24 36 65 27 23 -5 50 -14 60 -20z m109 -125 c7 -21 7 -40 1
-57 -14 -35 -105 -87 -154 -87 l-38 0 52 96 c29 53 57 107 63 121 l11 24 27
-33 c15 -17 32 -46 38 -64z"/>
<path d="M10607 10447 c-39 -61 -56 -104 -44 -116 9 -10 8 -11 -5 -6 -13 5
-22 -4 -38 -40 -15 -33 -26 -45 -36 -41 -9 3 -19 6 -23 6 -4 0 -6 13 -3 30 3
22 0 32 -14 37 -27 10 -127 -103 -155 -175 -26 -70 -21 -163 11 -197 l20 -21
-46 -79 c-54 -90 -69 -155 -37 -155 15 0 20 7 21 30 0 16 22 68 48 114 45 78
51 84 80 84 70 0 147 32 196 82 42 41 48 52 48 89 0 55 -21 94 -65 121 l-35
22 51 96 c28 54 55 101 60 107 13 13 11 22 -5 28 -8 3 -21 -4 -29 -16z m-194
-231 c3 3 19 3 35 -1 l30 -6 -70 -125 c-57 -101 -73 -122 -84 -113 -19 15 -18
119 1 165 24 59 55 96 69 85 7 -6 15 -8 19 -5z m175 -79 c36 -75 -48 -162
-176 -183 l-42 -7 58 104 c91 163 81 151 117 131 16 -10 36 -30 43 -45z"/>
<path d="M6577 10443 c-2 -4 -7 -37 -11 -73 -4 -36 -14 -105 -23 -155 -24
-146 7 -359 48 -318 5 5 2 32 -6 63 -19 70 -19 192 0 300 20 117 23 182 8 187
-6 2 -13 0 -16 -4z"/>
<path d="M12823 10339 l-38 -60 -63 -4 c-71 -3 -90 -15 -128 -81 -56 -96 -64
-164 -25 -203 19 -19 18 -21 -26 -96 -46 -78 -63 -137 -45 -149 12 -7 25 10
29 37 2 10 22 51 45 92 l43 74 56 -6 c158 -16 266 115 201 243 -11 22 -28 46
-36 53 -22 19 -21 26 20 87 32 48 37 74 14 74 -4 0 -25 -27 -47 -61z m-73
-104 c0 -7 -129 -218 -140 -229 -15 -15 -33 39 -26 76 7 38 65 140 82 145 6 2
14 -5 17 -17 6 -25 37 -16 37 11 0 10 7 19 15 19 8 0 15 -2 15 -5z m96 -72
c28 -65 6 -127 -57 -163 -38 -21 -130 -33 -144 -18 -3 3 29 60 71 127 75 120
77 122 97 104 11 -10 26 -32 33 -50z"/>
<path d="M2379 10362 c-55 -35 -113 -106 -105 -128 8 -21 40 -13 44 11 6 33
86 105 116 105 7 0 -16 -64 -49 -136 -40 -89 -83 -154 -134 -204 -52 -52 -94
-100 -85 -100 3 0 -7 -11 -22 -23 -31 -27 -29 -66 3 -48 21 11 130 124 158
164 l20 27 -3 -76 c-4 -83 10 -114 52 -114 33 0 126 47 126 64 0 8 6 16 13 19
8 3 7 7 -4 11 -11 5 -26 -2 -44 -18 -33 -31 -93 -45 -106 -25 -11 18 -11 73 1
124 5 23 5 44 0 49 -5 5 11 49 39 105 57 113 83 184 75 206 -9 23 -45 18 -95
-13z"/>
<path d="M8019 10366 c-35 -24 -99 -101 -99 -119 0 -4 12 -7 27 -5 21 2 33 13
48 41 31 59 97 91 81 40 -13 -40 -188 -283 -205 -283 -15 0 -111 -98 -111
-113 0 -32 36 -17 90 38 30 30 57 55 60 55 3 0 12 -27 19 -60 12 -51 19 -63
44 -77 24 -12 37 -13 66 -4 52 15 79 37 65 51 -9 9 -19 8 -42 -4 -17 -9 -42
-16 -56 -16 -26 0 -31 9 -56 108 l-11 43 61 81 c91 121 112 160 108 205 -3 32
-7 38 -28 41 -14 1 -41 -8 -61 -22z"/>
<path d="M3156 10351 c-13 -21 6 -41 33 -35 37 9 49 23 31 34 -19 12 -57 13
-64 1z"/>
<path d="M10015 10318 c-67 -44 -77 -54 -73 -80 4 -30 26 -34 37 -6 5 13 23
35 40 51 55 48 66 30 28 -44 -42 -83 -106 -158 -152 -180 -68 -32 -155 -124
-140 -149 13 -20 37 -9 108 54 l73 63 -10 -48 c-8 -40 -7 -55 7 -84 19 -39 48
-51 102 -41 47 9 95 50 78 67 -10 10 -15 9 -27 -1 -9 -7 -14 -15 -12 -19 2 -3
-20 -8 -49 -9 -65 -4 -71 7 -60 107 6 58 13 75 60 141 117 166 112 258 -10
178z"/>
<path d="M10774 10295 c-44 -26 -61 -52 -45 -68 7 -7 19 -1 37 17 31 30 71 43
86 28 5 -5 12 -28 15 -50 4 -33 0 -50 -25 -94 -47 -81 -117 -155 -169 -178
-46 -20 -72 -44 -73 -68 0 -28 32 -23 75 12 49 41 110 70 131 62 7 -3 14 -24
16 -47 4 -61 24 -70 88 -39 33 16 52 33 56 48 9 33 -11 50 -25 23 -12 -22 -69
-56 -78 -47 -3 3 -7 19 -8 36 -3 36 -19 58 -47 62 -19 3 -18 6 15 46 20 23 48
68 63 98 26 53 27 59 15 103 -23 85 -55 99 -127 56z"/>
<path d="M12253 10274 c-49 -31 -70 -50 -66 -59 8 -21 14 -19 81 25 68 45 77
48 92 21 15 -29 13 -35 -24 -75 -19 -20 -51 -56 -72 -81 -20 -25 -64 -61 -98
-80 -68 -38 -152 -117 -142 -134 11 -18 21 -13 72 34 l49 44 11 -32 c11 -33
64 -77 93 -77 25 0 81 38 81 55 0 19 -24 19 -40 0 -29 -34 -92 -6 -104 47 -5
24 -1 31 32 51 20 14 54 44 74 68 20 24 52 61 72 83 45 48 49 94 11 131 -13
14 -30 25 -37 25 -7 0 -45 -21 -85 -46z"/>
<path d="M8855 10299 c-4 -5 -2 -23 4 -38 10 -22 6 -53 -19 -169 -16 -79 -30
-160 -30 -181 0 -41 18 -59 39 -38 13 13 15 44 2 49 -5 2 2 53 15 113 32 144
40 226 25 253 -13 24 -26 28 -36 11z"/>
<path d="M13243 10252 c-23 -31 -80 -88 -127 -127 -49 -40 -84 -76 -82 -85 1
-8 9 -13 17 -11 21 7 147 6 154 -1 3 -3 -1 -31 -10 -64 -21 -80 -20 -136 2
-132 11 2 17 16 20 48 6 67 31 147 48 154 11 4 14 13 10 29 -4 13 0 48 9 78
18 66 25 161 11 165 -5 2 -29 -22 -52 -54z m2 -126 l-16 -56 -62 0 -61 0 45
37 c24 21 58 51 74 69 37 38 42 25 20 -50z"/>
<path d="M4172 10213 c-12 -3 -30 -16 -39 -29 -15 -24 -14 -28 16 -86 39 -76
39 -107 2 -147 -33 -36 -60 -39 -86 -11 -14 15 -15 23 -6 34 14 17 0 29 -23
20 -26 -10 -19 -57 12 -87 15 -15 36 -27 46 -27 52 0 126 78 126 133 0 16 -15
55 -32 88 -28 51 -31 61 -18 69 26 17 50 11 60 -16 11 -27 33 -28 38 -2 4 19
-27 55 -53 61 -11 2 -30 2 -43 0z"/>
<path d="M3260 10193 c-8 -3 -27 -15 -42 -25 -44 -31 -37 -59 32 -118 76 -66
82 -85 41 -122 -52 -46 -118 -31 -104 23 7 24 -22 26 -36 2 -12 -21 10 -68 39
-83 30 -16 88 -1 126 32 27 24 34 38 34 66 0 32 -8 44 -66 98 l-65 61 28 18
c16 11 49 19 78 20 35 1 50 6 50 16 0 10 -15 15 -50 16 -27 1 -57 -1 -65 -4z"/>
<path d="M4695 10178 c-36 -28 -85 -133 -85 -181 0 -72 49 -114 112 -96 51 14
65 26 50 41 -9 9 -15 9 -24 0 -17 -17 -73 -15 -89 4 -22 26 -14 87 17 145 24
43 34 54 52 52 27 -3 39 21 22 42 -16 20 -22 19 -55 -7z"/>
<path d="M4350 10149 c-7 -12 -10 -34 -8 -50 3 -15 1 -26 -3 -24 -8 6 -19 -56
-19 -112 0 -58 28 -87 67 -72 31 12 52 32 88 85 20 29 25 49 25 95 0 46 -3 59
-15 59 -16 0 -18 -8 -15 -53 3 -52 -65 -157 -101 -157 -12 0 -11 114 2 170 15
68 15 73 2 77 -6 2 -17 -6 -23 -18z"/>
<path d="M4902 10145 c-31 -26 -66 -110 -57 -138 2 -7 6 -25 9 -40 4 -16 20
-36 39 -47 50 -31 152 -23 132 9 -4 8 -18 10 -35 6 -41 -9 -98 18 -106 49 -15
63 24 142 74 148 35 4 36 32 1 36 -17 2 -37 -6 -57 -23z"/>
<path d="M3075 10108 c-4 -23 -18 -71 -32 -107 -23 -62 -24 -96 -3 -89 13 4
68 157 72 201 2 23 -1 32 -14 35 -12 2 -18 -7 -23 -40z"/>
<path d="M5621 10125 c-57 -49 -48 -93 29 -136 41 -24 59 -54 42 -71 -18 -18
-61 0 -68 27 -7 26 -18 32 -29 14 -15 -23 6 -60 42 -75 46 -20 81 -11 94 23
15 40 -5 76 -62 112 -53 33 -59 49 -31 74 23 21 31 21 54 0 14 -13 21 -14 30
-5 9 9 6 18 -12 37 -30 32 -51 32 -89 0z"/>
<path d="M5122 10083 c-15 -32 -33 -62 -39 -66 -15 -10 -17 -37 -3 -37 6 0 10
-15 10 -34 0 -25 7 -40 26 -55 32 -25 38 -26 103 -4 31 9 51 22 51 31 0 10 -7
13 -22 8 -70 -19 -101 -19 -115 -1 -19 27 -16 63 6 70 52 16 76 74 55 129 -13
35 -44 17 -72 -41z m48 -13 c0 -21 -5 -30 -16 -30 -9 0 -13 5 -10 13 3 6 9 20
12 30 9 25 14 21 14 -13z"/>
<path d="M5410 10100 c0 -16 14 -64 30 -106 37 -91 31 -106 -30 -79 -22 10
-40 24 -40 31 0 20 -19 27 -35 14 -21 -17 -3 -46 45 -70 54 -27 96 -26 115 4
14 22 13 29 -16 102 -25 63 -29 82 -20 96 15 24 6 38 -25 38 -20 0 -24 -5 -24
-30z"/>
<path d="M6235 10090 c-4 -6 -1 -25 5 -44 19 -59 -21 -116 -82 -116 -48 0 -77
69 -40 96 16 12 16 14 0 30 -28 29 -48 11 -48 -45 0 -91 35 -129 108 -116 54
9 93 51 99 107 7 64 -21 122 -42 88z"/>
<path d="M6926 9988 c-2 -7 -9 -37 -15 -67 -12 -59 -41 -107 -71 -116 -23 -7
-27 -45 -5 -45 28 0 91 74 103 121 17 65 19 111 5 116 -7 3 -15 -1 -17 -9z"/>
<path d="M9145 9978 c-2 -7 -4 -20 -3 -28 3 -41 -5 -63 -37 -99 -27 -30 -40
-37 -60 -33 -14 2 -25 0 -25 -5 0 -14 24 -63 31 -63 3 0 31 26 62 58 56 59 73
100 65 152 -3 27 -26 39 -33 18z"/>
<path d="M11421 9928 c-5 -13 -6 -29 -3 -36 2 -7 0 -12 -5 -10 -5 2 -24 -14
-42 -34 -18 -20 -41 -40 -52 -43 -21 -7 -23 -40 -2 -40 24 0 101 75 122 119
11 25 21 50 21 56 0 19 -31 10 -39 -12z"/>
<path d="M3913 9398 c-16 -22 -53 -98 -47 -98 3 0 -2 -7 -10 -15 -9 -9 -21
-15 -28 -14 -34 4 -52 -5 -97 -49 -89 -88 -126 -190 -96 -268 l17 -45 -40 -62
c-45 -70 -56 -99 -47 -126 11 -37 65 -37 62 0 -1 11 -7 17 -14 15 -25 -10 -13
30 30 98 36 58 45 66 66 63 62 -12 155 43 190 110 25 49 7 159 -32 191 -14 12
-11 21 26 90 22 42 48 82 56 88 16 12 7 34 -13 34 -8 0 -18 -6 -23 -12z m-93
-168 c0 -5 -7 -10 -16 -10 -8 0 -12 5 -9 10 3 6 10 10 16 10 5 0 9 -4 9 -10z
m-43 -24 c-3 -7 -1 -18 5 -24 13 -13 -98 -226 -113 -217 -16 11 -10 84 12 129
28 59 115 161 96 112z m98 -110 c13 -81 -62 -166 -146 -166 -26 0 -25 5 46
138 58 109 60 112 77 92 9 -12 20 -40 23 -64z"/>
<path d="M3551 9335 c-31 -57 -39 -66 -70 -72 -20 -4 -38 -8 -41 -8 -23 -5
-78 -36 -91 -51 -26 -31 -59 -120 -59 -160 0 -20 5 -54 11 -75 11 -34 9 -42
-15 -84 -32 -54 -32 -100 -1 -100 16 0 20 7 20 31 0 44 35 105 57 98 9 -3 36
0 60 6 62 17 163 120 173 178 8 52 0 93 -27 128 l-22 27 25 45 c13 25 32 53
42 63 21 19 15 39 -11 39 -11 0 -30 -25 -51 -65z m-97 -167 c-20 -35 -54 -92
-77 -127 -38 -59 -42 -62 -48 -40 -8 33 -2 76 18 124 24 58 43 78 60 64 10 -9
19 -6 38 15 41 45 45 29 9 -36z m106 -38 c0 -39 -6 -55 -32 -88 -42 -51 -104
-92 -140 -92 l-29 0 35 53 c19 28 56 90 82 136 l48 83 18 -22 c12 -14 18 -39
18 -70z"/>
<path d="M3094 9294 c-44 -22 -88 -70 -81 -88 10 -24 36 -19 47 9 8 21 86 72
96 63 10 -10 -19 -77 -57 -132 -56 -81 -121 -148 -196 -202 -35 -25 -63 -49
-63 -54 0 -24 26 -19 73 13 72 50 78 49 91 -3 9 -34 17 -46 36 -50 30 -8 79 4
98 24 17 17 6 42 -11 27 -7 -5 -29 -12 -49 -16 -38 -7 -38 -7 -38 26 0 18 -8
41 -17 51 -16 18 -15 21 18 56 100 106 169 235 148 274 -12 22 -53 23 -95 2z"/>
<path d="M5277 9213 c-4 -3 -7 -21 -7 -39 0 -18 -9 -78 -20 -133 -20 -104 -16
-151 13 -151 21 0 28 12 16 26 -37 44 28 93 124 94 49 0 62 -4 84 -26 25 -26
26 -35 7 -101 -9 -33 24 -30 36 3 37 96 -33 176 -142 161 l-40 -5 44 36 c101
86 123 110 111 122 -8 9 -22 3 -55 -27 -77 -69 -149 -126 -154 -121 -2 3 0 36
6 74 5 38 10 75 10 82 0 13 -22 17 -33 5z"/>
<path d="M4922 9173 c-18 -7 -44 -61 -36 -75 4 -6 3 -8 -4 -4 -6 4 -15 -14
-22 -47 -11 -46 -10 -58 4 -85 20 -39 44 -52 93 -52 43 0 124 45 142 79 27 50
0 124 -54 147 -38 15 -85 5 -85 -19 0 -21 12 -28 26 -16 38 32 104 -34 85 -84
-6 -14 -7 -28 -3 -32 4 -4 2 -5 -3 -4 -6 2 -23 -4 -40 -13 -16 -9 -47 -18 -68
-21 -32 -4 -40 -1 -54 19 -27 42 9 174 48 174 24 0 35 20 18 31 -15 10 -27 10
-47 2z"/>
<path d="M4405 9151 c-47 -10 -39 -37 10 -33 44 4 61 14 51 31 -8 12 -15 12
-61 2z"/>
<path d="M4360 9031 c-31 -4 -45 -11 -45 -21 0 -12 11 -14 55 -12 60 4 84 17
60 32 -8 5 -17 9 -20 8 -3 0 -25 -4 -50 -7z"/>
<path d="M3474 8353 c-3 -10 -18 -48 -32 -85 -29 -74 -38 -77 -93 -38 -22 15
-29 16 -55 5 -38 -16 -97 -86 -123 -146 -41 -95 -39 -199 7 -244 l26 -26 -37
-75 c-39 -78 -45 -112 -25 -132 19 -19 51 14 36 37 -8 14 -3 33 28 91 37 71
41 74 79 77 77 8 167 80 206 167 31 69 21 134 -29 179 -19 18 -19 18 15 98 33
76 37 109 13 109 -6 0 -13 -8 -16 -17z m-105 -174 l31 -11 -33 -62 c-94 -174
-133 -239 -145 -244 -46 -17 -56 143 -14 224 50 98 86 119 161 93z m86 -59
c37 -41 12 -143 -52 -201 -54 -51 -143 -91 -131 -60 8 25 154 281 159 281 3 0
14 -9 24 -20z"/>
<path d="M6175 8308 c-2 -7 -12 -49 -21 -93 -9 -44 -17 -82 -19 -86 -2 -3 -29
-11 -59 -18 -31 -7 -58 -17 -62 -23 -12 -19 12 -27 53 -15 23 6 45 8 49 5 3
-4 -1 -38 -10 -77 -20 -86 -20 -131 -3 -156 21 -27 32 -2 29 65 -1 30 6 84 15
120 l18 65 63 11 c106 19 110 50 5 36 l-60 -8 18 85 c9 47 15 89 13 93 -8 12
-24 9 -29 -4z"/>
<path d="M6826 8262 c-2 -4 -18 -82 -35 -172 -32 -172 -49 -212 -90 -218 -57
-9 -79 65 -38 125 27 41 54 51 71 27 14 -18 36 -12 36 11 0 8 -11 22 -25 31
-34 22 -75 5 -112 -49 -41 -59 -39 -118 5 -158 18 -16 43 -29 57 -29 34 0 91
53 99 92 25 117 56 297 56 321 0 26 -13 36 -24 19z"/>
<path d="M3695 8250 c-3 -5 -10 -47 -15 -93 -5 -45 -16 -127 -25 -182 -30
-190 -30 -197 -10 -194 10 3 19 14 21 29 1 14 11 81 23 150 17 108 34 254 33
285 -1 14 -19 18 -27 5z"/>
<path d="M2816 8198 c-36 -23 -44 -33 -36 -43 9 -11 7 -12 -8 -8 -23 6 -39
-14 -24 -29 7 -7 27 3 62 31 41 33 55 39 66 30 17 -14 18 -78 2 -116 -22 -52
-92 -153 -110 -159 -25 -8 -108 -91 -108 -108 0 -8 5 -18 10 -21 14 -9 72 29
100 65 30 39 43 38 59 -6 18 -51 45 -74 85 -74 39 0 94 39 82 58 -5 8 -18 5
-46 -9 -49 -26 -72 -15 -89 41 -7 23 -19 44 -27 47 -12 4 -10 12 11 39 36 47
85 154 84 184 -1 43 -23 93 -46 101 -16 6 -33 0 -67 -23z"/>
<path d="M4357 8113 c-4 -4 -26 -8 -49 -11 -47 -4 -68 -16 -68 -39 0 -11 6
-13 23 -8 12 4 50 10 85 12 63 5 76 15 45 39 -21 15 -27 17 -36 7z"/>
<path d="M6383 8088 c-74 -35 -110 -128 -80 -201 18 -42 44 -52 112 -44 49 5
102 34 89 47 -5 5 -34 2 -64 -6 -30 -8 -60 -14 -66 -14 -22 0 -44 31 -44 61 0
24 4 29 23 29 67 0 154 82 136 128 -11 28 -48 29 -106 0z m65 -37 c-14 -22
-88 -62 -101 -54 -14 8 12 40 45 55 67 31 76 31 56 -1z"/>
<path d="M5015 8072 c-22 -11 -55 -36 -73 -57 -61 -69 -67 -117 -21 -161 29
-27 35 -29 112 -29 79 1 134 16 122 35 -3 5 -45 6 -94 3 -86 -6 -90 -5 -115
20 -23 23 -25 30 -15 54 24 64 118 128 179 121 17 -2 25 2 25 12 0 23 -72 24
-120 2z"/>
<path d="M5315 8068 c-11 -7 -29 -12 -40 -13 -15 0 -19 -6 -17 -23 1 -13 -5
-52 -13 -88 -15 -66 -12 -94 10 -94 8 0 16 18 20 43 9 56 44 135 64 146 10 6
25 4 43 -7 35 -20 46 -10 24 23 -18 27 -56 33 -91 13z"/>
<path d="M5565 8065 c-42 -21 -85 -90 -85 -135 0 -46 28 -101 60 -117 51 -26
140 -11 140 23 0 12 -7 14 -32 8 -42 -9 -88 -6 -104 7 -26 22 -36 75 -21 112
18 41 54 77 79 77 41 0 12 -65 -38 -86 -38 -16 -41 -41 -4 -36 34 3 76 38 90
73 11 27 11 36 -1 58 -18 31 -44 36 -84 16z"/>
<path d="M5791 8044 c-17 -14 -36 -43 -42 -64 -10 -33 -9 -43 5 -65 18 -27 61
-34 95 -15 16 8 20 5 24 -20 6 -28 42 -58 55 -45 3 3 0 16 -7 28 -18 28 -16
89 4 127 19 37 19 70 0 70 -8 0 -15 -4 -15 -10 0 -15 -26 -12 -40 5 -18 22
-44 18 -79 -11z m77 -32 l23 -18 -21 -27 c-41 -52 -90 -58 -90 -12 0 25 35 75
53 75 7 0 22 -8 35 -18z"/>
<path d="M4222 7929 c-47 -18 -16 -31 78 -34 52 -2 98 -1 102 1 3 2 4 12 2 22
-4 14 -18 17 -82 18 -42 1 -88 -3 -100 -7z"/>
<path d="M8798 7475 c-114 -60 -150 -193 -72 -266 59 -55 68 -109 28 -176 -19
-33 -30 -43 -42 -38 -9 3 -45 -2 -79 -12 -49 -14 -63 -22 -63 -37 0 -16 7 -18
70 -14 l70 4 0 -55 c0 -31 -10 -93 -21 -138 -13 -52 -19 -96 -15 -117 15 -78
87 -120 152 -88 19 9 33 21 31 26 -4 12 -14 12 -64 1 -71 -16 -105 74 -67 176
11 28 17 77 18 137 0 50 4 92 8 92 19 0 58 89 58 134 0 54 -10 76 -56 129 -43
47 -46 95 -9 150 28 41 93 79 140 81 19 1 30 7 30 16 0 25 -65 22 -117 -5z"/>
<path d="M14440 7431 c-14 -4 -25 -13 -25 -21 0 -15 14 -16 80 -9 26 4 32 -1
47 -32 10 -19 21 -55 24 -80 6 -42 3 -47 -59 -130 -81 -110 -97 -162 -67 -223
11 -23 20 -56 20 -72 0 -18 13 -45 35 -73 45 -57 49 -74 41 -182 -8 -101 -24
-154 -62 -204 -47 -62 -89 -55 -100 16 -9 53 -34 53 -34 0 0 -75 65 -116 123
-78 65 43 106 155 109 303 3 93 -3 113 -52 174 -12 14 -22 39 -23 55 -2 28 0
30 31 27 23 -3 32 1 32 12 0 18 -34 38 -58 34 -69 -11 -51 82 36 193 68 87 76
110 61 174 -13 55 -36 106 -53 117 -13 9 -72 9 -106 -1z"/>
<path d="M3441 7308 c-15 -35 -33 -77 -40 -94 -12 -30 -14 -31 -49 -22 -73 19
-109 3 -142 -61 -45 -89 -32 -207 25 -233 31 -14 29 -28 -15 -121 -27 -56 -30
-92 -8 -85 6 2 27 44 48 93 l39 89 51 13 c83 21 140 73 153 141 8 40 -10 79
-53 116 -26 22 -29 29 -20 46 6 11 8 25 4 31 -3 6 3 19 15 30 12 11 21 26 21
33 0 7 9 25 21 40 21 27 18 46 -7 46 -9 0 -27 -26 -43 -62z m-100 -160 l26 -3
-44 -112 c-25 -62 -49 -113 -54 -113 -5 0 -18 9 -29 20 -15 15 -20 33 -20 73
1 83 53 174 85 147 5 -4 22 -10 36 -12z m111 -53 c10 -11 17 -35 18 -54 0 -27
-8 -42 -39 -72 -36 -34 -95 -59 -108 -46 -2 3 14 53 38 111 45 114 45 114 91
61z"/>
<path d="M5633 7306 c-24 -29 -43 -56 -43 -59 0 -3 -11 -18 -25 -33 -13 -14
-56 -88 -93 -164 -38 -75 -82 -158 -97 -184 -22 -38 -25 -50 -15 -56 18 -11
63 19 56 37 -3 7 9 39 27 71 l32 57 68 1 67 1 -6 -91 c-3 -55 -1 -97 5 -106
19 -28 29 3 33 102 4 88 6 98 28 117 25 19 25 20 5 28 l-21 8 24 140 c13 77
24 149 25 160 3 37 -28 24 -70 -29z m3 -161 l-21 -130 -53 -9 c-72 -12 -82 -1
-49 58 14 25 21 46 16 46 -5 0 -9 4 -9 10 0 5 6 7 13 5 14 -6 47 47 47 75 0
11 5 17 13 15 6 -3 23 11 36 30 13 20 25 34 26 33 2 -2 -7 -61 -19 -133z"/>
<path d="M7755 7273 c-15 -14 -17 -33 -13 -135 4 -99 3 -118 -9 -114 -42 17
-124 -55 -143 -125 -20 -72 32 -128 104 -115 77 15 95 74 85 276 -3 74 -4 156
-1 183 5 51 2 56 -23 30z m-15 -298 c17 -21 6 -112 -16 -136 -19 -21 -74 -25
-92 -7 -27 27 -4 99 44 137 32 25 47 26 64 6z"/>
<path d="M2955 7272 c-39 -13 -130 -71 -159 -101 -23 -24 -27 -34 -18 -43 9
-9 22 -2 57 32 25 24 45 41 45 37 0 -4 18 4 40 18 22 14 49 25 60 25 18 0 20
-5 18 -45 -2 -25 -5 -45 -8 -45 -3 0 -13 -21 -24 -46 -30 -72 -108 -184 -170
-243 -31 -29 -55 -58 -53 -64 8 -26 32 -15 89 43 69 68 95 74 111 25 16 -51
36 -66 80 -63 24 2 44 10 51 20 15 25 1 33 -34 18 -36 -15 -55 -3 -65 41 -4
16 -17 37 -31 48 l-24 19 35 58 c38 63 70 140 80 196 6 29 3 40 -14 57 -22 22
-32 24 -66 13z"/>
<path d="M11015 7260 c-17 -5 -54 -32 -83 -61 -48 -47 -52 -54 -52 -99 0 -26
7 -67 15 -90 8 -23 15 -44 15 -45 0 -2 -29 -7 -65 -10 -63 -7 -86 -19 -69 -34
5 -5 41 -5 79 -1 39 4 71 6 72 5 2 -1 6 -15 9 -32 4 -23 0 -36 -19 -59 -23
-26 -28 -28 -48 -16 -29 18 -43 2 -23 -26 19 -28 44 -28 79 0 36 28 55 74 45
109 -7 25 -6 28 26 34 19 3 50 3 69 -1 47 -8 72 1 55 21 -9 11 -34 15 -95 15
l-82 0 -17 58 c-9 32 -16 68 -16 80 0 31 83 108 128 119 22 5 37 15 37 23 0
18 -20 21 -60 10z"/>
<path d="M3695 7219 c-47 -24 -89 -73 -81 -94 8 -23 23 -18 42 14 21 35 71 65
99 59 55 -11 -29 -157 -166 -289 -68 -65 -86 -88 -77 -97 9 -9 21 -4 52 22 23
18 50 38 62 44 19 10 20 8 20 -43 -1 -69 20 -95 79 -95 51 0 101 16 109 35 7
19 -10 28 -31 17 -34 -18 -94 -24 -109 -11 -17 14 -18 66 -3 106 8 21 7 30 -4
38 -12 9 -7 21 33 74 87 116 111 189 72 224 -24 22 -49 21 -97 -4z"/>
<path d="M7043 7219 c4 -15 -3 -52 -19 -96 -26 -72 -27 -73 -63 -73 -45 0 -66
-13 -57 -35 4 -12 12 -15 24 -10 9 4 27 10 39 12 l21 5 -19 -74 c-17 -65 -18
-80 -7 -114 15 -44 45 -64 99 -64 42 0 80 22 59 35 -8 5 -35 7 -61 6 -39 -2
-50 1 -58 18 -15 28 -14 62 6 131 17 64 18 64 74 51 37 -8 74 3 64 19 -3 4
-28 11 -55 15 -28 4 -50 11 -50 16 0 4 9 32 21 60 24 63 22 112 -5 117 -15 3
-18 0 -13 -19z"/>
<path d="M10273 7224 c-11 -29 5 -148 31 -229 14 -44 26 -86 26 -92 0 -19 -55
-43 -99 -43 -48 0 -60 23 -36 71 14 26 21 30 45 27 35 -5 48 17 20 32 -31 17
-50 12 -81 -21 -22 -23 -29 -41 -29 -70 0 -77 71 -102 160 -56 65 33 67 42 37
136 -32 97 -50 201 -41 236 5 19 2 25 -10 25 -9 0 -19 -7 -23 -16z"/>
<path d="M13436 7191 c-11 -18 6 -41 30 -41 29 0 32 25 5 40 -24 12 -28 12
-35 1z"/>
<path d="M4560 7091 c-41 -9 -80 -28 -80 -41 0 -18 20 -21 48 -6 15 8 55 16
87 17 77 3 95 8 95 25 0 15 -84 18 -150 5z"/>
<path d="M5845 7032 c-101 -63 -134 -196 -62 -247 41 -29 160 -15 173 20 10
25 -3 29 -40 11 -46 -22 -92 -20 -116 4 -56 56 20 189 111 194 23 1 34 7 34
16 0 23 -64 24 -100 2z"/>
<path d="M9510 7039 c0 -7 -10 -9 -26 -5 -40 10 -62 -2 -89 -48 -29 -50 -32
-77 -7 -98 22 -20 72 -32 72 -18 0 6 8 10 18 9 9 -1 25 1 35 6 23 10 25 8 32
-51 l7 -51 -42 -6 c-63 -8 -89 -39 -95 -112 -8 -85 19 -159 58 -163 53 -6 117
97 117 190 0 33 3 37 21 35 31 -3 35 21 7 34 -24 10 -36 51 -67 224 -4 23 -11
46 -15 53 -9 15 -26 16 -26 1z m-10 -57 c20 -16 21 -21 10 -43 -17 -31 -29
-39 -63 -39 -36 0 -44 23 -24 66 19 39 43 44 77 16z m62 -259 c6 -55 -42 -173
-76 -186 -20 -8 -36 43 -36 113 0 60 14 83 55 93 44 11 54 7 57 -20z"/>
<path d="M13036 7041 c-4 -5 -4 -28 0 -50 5 -33 1 -49 -21 -86 -55 -95 -108
-82 -111 27 -1 48 -5 64 -17 66 -23 5 -25 -6 -17 -83 7 -57 12 -73 34 -91 21
-19 31 -21 58 -14 81 23 149 179 99 224 -12 11 -21 13 -25 7z"/>
<path d="M7327 7017 c-54 -33 -85 -83 -79 -127 9 -66 65 -103 148 -98 42 3 49
6 52 26 2 12 8 22 13 22 5 0 9 7 9 15 0 8 -6 15 -14 15 -27 0 -46 -12 -46 -30
0 -16 -6 -18 -37 -13 -42 6 -86 32 -91 54 -2 9 16 21 48 32 28 10 60 27 71 38
25 25 25 65 0 79 -27 14 -31 13 -74 -13z m53 -30 c0 -12 -68 -52 -76 -45 -5 6
10 24 36 41 29 20 40 21 40 4z"/>
<path d="M6060 6998 c-36 -36 -69 -100 -70 -135 0 -40 40 -73 99 -82 59 -9
106 -1 106 18 0 8 -23 13 -67 15 -38 2 -75 9 -83 16 -38 31 10 143 68 158 39
10 42 36 6 40 -19 2 -36 -6 -59 -30z"/>
<path d="M6333 7003 c-32 -35 -66 -110 -59 -129 4 -10 2 -12 -6 -8 -8 5 -9 -2
-4 -22 11 -45 35 -74 71 -90 44 -18 99 -19 89 -1 -6 9 -4 9 7 1 19 -15 79 2
79 21 0 8 -1 15 -2 15 -2 0 -29 -4 -62 -10 -88 -14 -146 17 -146 79 0 15 9 22
35 27 42 8 115 58 115 80 0 22 -46 64 -70 64 -12 0 -33 -12 -47 -27z m72 -32
c0 -16 -72 -64 -79 -53 -2 4 5 23 16 40 14 23 27 32 42 30 11 -2 21 -9 21 -17z"/>
<path d="M6681 7002 c-22 -21 -32 -25 -44 -18 -26 17 -24 23 -56 -159 -6 -33
-13 -82 -16 -110 -7 -73 -14 -126 -21 -157 -6 -31 14 -48 31 -25 13 18 31 94
40 169 l6 46 28 -14 c37 -19 67 -7 110 42 57 65 75 136 51 200 -23 60 -84 72
-129 26z m78 -11 c21 -14 30 -84 15 -126 -16 -49 -72 -107 -99 -103 -16 2 -19
9 -17 36 3 24 -3 38 -20 53 -13 11 -18 18 -11 15 7 -4 20 11 32 39 19 43 62
95 78 95 4 0 14 -4 22 -9z"/>
<path d="M9689 7028 c-2 -3 -4 -18 -15 -96 -8 -58 13 -82 72 -82 34 0 47 5 63
26 39 50 24 102 -39 134 -33 17 -77 26 -81 18z m82 -58 c22 -12 26 -59 7 -78
-16 -16 -53 -15 -68 3 -9 11 -9 22 0 50 12 36 27 42 61 25z"/>
<path d="M12097 7024 c-4 -4 -7 -16 -7 -26 0 -17 -1 -17 -20 2 -26 26 -64 25
-105 0 -68 -42 -83 -106 -34 -143 24 -17 31 -18 65 -7 22 7 56 26 77 43 37 29
38 29 33 6 -3 -13 -15 -64 -25 -114 -11 -49 -31 -133 -45 -185 -27 -98 -34
-184 -16 -195 20 -12 51 7 76 46 13 22 22 44 19 50 -4 5 -2 8 3 7 5 -2 21 9
35 25 16 16 37 27 52 27 20 0 26 4 23 17 -4 23 -34 28 -64 12 -14 -7 -46 -44
-72 -82 -59 -87 -63 -72 -23 83 52 204 83 352 77 375 -8 30 -39 68 -49 59z
m-52 -109 c-35 -29 -83 -41 -98 -26 -18 18 5 62 43 82 l35 19 25 -26 25 -25
-30 -24z"/>
<path d="M12588 6997 c-76 -58 -88 -117 -31 -154 46 -30 252 -13 240 20 -4 12
-7 12 -123 1 -48 -4 -78 -3 -93 5 -21 12 -19 14 39 42 70 36 85 56 68 93 -16
36 -47 33 -100 -7z m70 -19 c-4 -12 -48 -39 -83 -51 -12 -4 -5 7 19 28 39 35
71 46 64 23z"/>
<path d="M13965 7020 c-4 -6 -4 -27 -1 -46 12 -63 -34 -124 -94 -124 -15 0
-20 7 -20 29 0 38 44 91 73 88 32 -3 31 37 -1 41 -28 4 -97 -61 -108 -103 -10
-39 7 -78 38 -89 35 -12 104 17 123 53 13 24 14 14 15 -96 l0 -122 -47 -6
c-94 -13 -139 -45 -149 -107 -11 -66 54 -138 111 -124 35 9 82 69 101 131 19
60 40 70 59 27 11 -25 30 -29 38 -8 7 19 -20 55 -49 66 -23 9 -24 12 -25 132
-1 169 -35 305 -64 258z m25 -415 c0 -18 -44 -115 -60 -133 -42 -45 -100 -14
-100 54 0 49 49 82 123 83 20 1 37 -1 37 -4z"/>
<path d="M12285 7009 c-4 -6 -9 -37 -12 -69 -14 -153 82 -186 163 -58 39 62
28 156 -14 115 -12 -13 -13 -19 -3 -31 25 -29 -46 -132 -85 -124 -26 5 -39 68
-26 120 6 23 9 45 6 50 -7 11 -22 10 -29 -3z"/>
<path d="M13140 6994 c-41 -35 -60 -74 -60 -124 0 -82 83 -125 161 -84 32 16
34 42 3 34 -10 -2 -39 -4 -64 -5 -38 0 -46 4 -60 27 -19 35 -6 59 38 70 40 11
66 49 58 83 -8 33 -36 32 -76 -1z m35 -33 c-3 -6 -11 -11 -17 -11 -6 0 -6 6 2
15 14 17 26 13 15 -4z"/>
<path d="M13427 7013 c-3 -4 -8 -39 -12 -77 -5 -42 -11 -63 -16 -55 -6 11 -9
10 -15 -4 -10 -27 3 -49 28 -45 18 2 24 12 29 43 13 78 14 138 2 142 -6 2 -13
0 -16 -4z"/>
<path d="M13650 6995 c-15 -16 -30 -23 -41 -20 -23 8 -33 -10 -18 -32 8 -14 6
-30 -11 -72 -13 -35 -17 -58 -11 -64 16 -16 28 0 56 72 40 107 80 130 87 51 2
-23 8 -35 18 -35 29 0 25 79 -6 109 -22 23 -47 20 -74 -9z"/>
<path d="M9948 6993 c-10 -2 -19 -9 -19 -14 -1 -5 -2 -13 -3 -18 0 -5 -4 -13
-8 -17 -5 -4 -8 -22 -8 -39 0 -41 39 -78 82 -78 44 0 82 44 74 87 -13 66 -58
96 -118 79z m72 -54 c24 -43 -10 -96 -47 -73 -32 20 -37 39 -18 67 21 32 50
35 65 6z"/>
<path d="M11326 6979 c-29 -23 -35 -67 -13 -109 16 -32 47 -39 47 -11 0 11 -4
23 -10 26 -5 3 -10 19 -10 35 0 41 28 54 80 39 49 -15 64 -4 31 22 -31 26 -91
25 -125 -2z"/>
<path d="M4534 6960 c-76 -11 -95 -28 -55 -49 14 -8 27 -7 47 4 34 17 83 20
142 10 35 -6 42 -5 42 8 0 31 -75 42 -176 27z"/>
<path d="M11133 6948 c-49 -94 -52 -127 -12 -149 47 -25 139 20 139 67 0 36
-15 59 -54 83 -43 27 -58 26 -73 -1z m77 -48 c11 -11 20 -24 20 -29 0 -17 -43
-41 -72 -41 -23 0 -28 4 -28 25 0 25 31 65 50 65 6 0 19 -9 30 -20z"/>
<path d="M13720 6860 c0 -11 7 -20 15 -20 8 0 15 9 15 20 0 11 -7 20 -15 20
-8 0 -15 -9 -15 -20z"/>
<path d="M3374 6309 l-38 -80 -40 7 c-65 11 -80 10 -84 -7 -2 -13 8 -18 48
-23 35 -5 50 -11 50 -22 0 -12 -8 -14 -45 -9 -53 9 -94 -13 -154 -81 -49 -56
-62 -104 -45 -169 11 -46 50 -95 83 -106 9 -3 9 -12 2 -30 -7 -19 -6 -30 2
-38 9 -9 9 -11 -3 -7 -11 5 -25 -20 -58 -102 -44 -110 -49 -132 -32 -132 16 0
35 38 85 168 l47 122 53 0 c75 0 152 41 184 99 35 63 33 151 -4 220 -15 28
-36 58 -46 67 -17 16 -16 20 22 96 37 74 44 108 20 108 -5 0 -26 -36 -47 -81z
m22 -214 c30 -63 30 -118 2 -175 -27 -54 -72 -79 -140 -80 -27 0 -48 2 -48 4
0 4 99 245 122 296 16 36 32 25 64 -45z m-108 37 c-1 -5 -28 -70 -58 -145 -30
-75 -57 -137 -61 -137 -18 0 -59 45 -69 76 -19 57 -5 99 54 160 47 49 56 54
95 54 23 0 41 -4 39 -8z"/>
<path d="M5900 6283 c0 -3 12 -36 26 -71 50 -126 27 -288 -54 -374 -34 -37
-55 -35 -86 5 -28 36 -74 50 -56 17 20 -37 78 -90 99 -90 37 0 97 65 125 135
46 114 43 244 -7 358 -10 23 -47 39 -47 20z"/>
<path d="M3788 6223 c-14 -16 -48 -63 -77 -105 -29 -42 -82 -104 -117 -137
-74 -69 -77 -91 -10 -90 22 0 63 4 89 8 l48 8 -7 -81 c-6 -83 6 -141 28 -134
7 3 12 39 12 108 1 86 4 105 16 105 21 0 25 36 6 51 -15 10 -15 18 -1 90 8 44
15 90 15 103 0 14 12 37 26 52 14 15 23 32 20 38 -11 17 -20 13 -48 -16z m-54
-203 c-7 -41 -13 -76 -14 -76 0 -1 -25 -5 -57 -9 -31 -4 -63 -9 -72 -12 -9 -3
5 13 31 36 25 23 63 64 83 92 21 27 39 49 40 47 1 -2 -3 -37 -11 -78z"/>
<path d="M7775 6241 c-11 -5 -36 -42 -60 -92 -37 -78 -42 -84 -75 -89 -47 -7
-49 -36 -2 -33 31 1 33 -1 28 -23 -9 -34 -9 -225 0 -249 20 -58 84 -84 118
-49 9 8 16 12 16 8 0 -5 5 -3 12 4 9 9 9 15 0 24 -9 9 -15 9 -24 0 -17 -17
-63 -15 -79 5 -16 18 -20 217 -6 267 8 28 9 28 60 22 37 -5 48 -3 37 4 -13 9
-13 11 0 20 12 7 8 10 -15 10 -45 0 -56 11 -49 48 4 18 10 32 15 32 4 0 11 9
14 20 4 12 16 30 28 40 24 23 13 42 -18 31z"/>
<path d="M2744 6183 c-36 -37 -54 -64 -52 -77 4 -26 26 -32 35 -9 11 31 72
101 94 108 21 7 79 -11 79 -25 0 -8 -25 -46 -99 -150 -80 -113 -117 -157 -171
-202 -29 -24 -60 -53 -68 -65 -13 -20 -13 -23 2 -29 10 -4 37 13 80 50 l64 57
0 -46 c-2 -70 47 -108 108 -85 26 10 26 11 9 30 -21 23 -41 26 -48 8 -3 -10
-7 -10 -20 1 -22 18 -19 141 5 168 37 43 166 230 172 250 12 37 -32 73 -89 73
-44 0 -50 -4 -101 -57z"/>
<path d="M8644 6213 c-39 -127 -53 -143 -120 -143 -38 0 -67 -20 -55 -38 6
-11 16 -11 47 -3 65 18 65 18 58 -53 -12 -114 23 -168 116 -181 39 -5 56 -3
76 10 14 9 23 19 20 22 -3 3 -35 7 -71 7 -73 1 -93 14 -104 67 -6 32 2 135 12
145 2 3 43 8 90 11 91 6 114 14 102 33 -6 9 -30 10 -93 5 -80 -7 -84 -6 -77
11 24 57 35 99 31 111 -8 19 -26 16 -32 -4z"/>
<path d="M5637 6163 c-3 -4 -17 -66 -32 -138 -15 -71 -40 -166 -56 -210 -23
-63 -27 -82 -17 -92 10 -10 18 -8 38 7 19 15 22 22 13 31 -8 8 -9 19 -2 36 5
13 8 27 7 31 -1 4 3 16 9 27 6 11 19 58 29 104 l18 84 18 -43 c39 -91 51 -110
68 -110 16 0 14 9 -17 83 -20 45 -39 106 -42 136 -5 49 -21 75 -34 54z"/>
<path d="M6061 6024 c-16 -12 -21 -22 -17 -39 3 -13 -3 -42 -14 -67 -27 -59
-26 -114 1 -128 11 -7 26 -9 34 -7 7 3 16 2 21 -3 15 -14 70 16 98 53 48 62
47 138 -1 183 -31 29 -87 32 -122 8z m103 -40 c28 -27 29 -60 5 -108 -23 -47
-59 -70 -101 -64 -19 3 -23 8 -20 36 2 35 34 105 60 135 19 21 36 22 56 1z"/>
<path d="M7440 6020 c-16 -12 -34 -17 -51 -13 -25 5 -28 1 -63 -96 -21 -56
-34 -105 -31 -111 10 -15 25 -12 32 8 3 9 33 54 65 100 55 75 78 97 78 72 0
-5 8 -7 18 -3 16 5 16 5 1 -8 -11 -9 -18 -34 -21 -69 -2 -31 -12 -70 -20 -88
-16 -30 -16 -33 3 -43 31 -16 43 -6 45 37 1 21 4 76 8 120 6 68 4 85 -9 98
-21 20 -24 20 -55 -4z"/>
<path d="M7994 6004 c-21 -15 -45 -35 -52 -46 -8 -10 -22 -26 -32 -36 -24 -23
-44 -94 -36 -126 9 -35 47 -58 103 -62 60 -5 123 12 123 32 0 12 -9 14 -47 8
-27 -3 -50 -6 -53 -6 -56 0 -71 4 -85 26 -12 18 -13 30 -5 50 10 27 14 30 62
40 46 10 88 53 88 91 0 51 -20 60 -66 29z m36 -32 c0 -11 -28 -36 -60 -52 -23
-12 -24 -12 -11 3 11 14 11 17 0 17 -8 0 2 8 21 19 41 22 50 24 50 13z"/>
<path d="M8270 6010 c-14 -11 -32 -17 -41 -15 -22 7 -53 -30 -46 -55 3 -11 2
-18 -3 -15 -4 2 -10 -19 -13 -47 -5 -35 -3 -54 5 -59 16 -10 28 -2 28 20 0 22
54 108 88 140 l25 25 -7 -25 c-11 -40 -19 -155 -12 -183 7 -29 43 -53 58 -38
6 6 3 16 -9 27 -20 21 -21 98 -3 181 6 25 8 50 5 55 -10 15 -48 10 -75 -11z"/>
<path d="M6842 6001 c-99 -34 -166 -127 -142 -197 20 -57 114 -97 199 -84 19
3 36 11 39 18 3 10 -8 13 -44 12 -67 -3 -109 8 -139 36 -37 35 -33 76 13 125
40 43 133 82 171 72 17 -4 20 -2 14 12 -5 14 -3 16 7 10 9 -5 11 -4 6 3 -10
17 -63 14 -124 -7z"/>
<path d="M4817 6004 c-3 -3 -70 -5 -149 -5 -142 1 -178 -5 -163 -29 10 -16
240 -6 260 10 9 8 14 6 18 -4 8 -20 61 -6 65 17 3 16 -18 24 -31 11z"/>
<path d="M7099 5985 c-48 -26 -91 -131 -73 -180 17 -43 108 -58 161 -25 70 42
80 105 28 180 -22 32 -34 40 -59 40 -17 -1 -42 -7 -57 -15z m41 -37 c0 -5 4
-6 10 -3 17 10 48 -13 59 -46 9 -26 8 -37 -5 -56 -47 -73 -176 -53 -147 23 13
38 54 91 68 91 8 0 15 -4 15 -9z"/>
<path d="M4496 5863 c-15 -15 -3 -32 29 -43 39 -13 247 -4 278 12 39 20 11 25
-112 20 -79 -3 -140 -1 -159 6 -17 6 -33 8 -36 5z"/>
</g>
</svg>
